<?xml version="1.0" standalone="no"?>
<!DOCTYPE svg PUBLIC "-//W3C//DTD SVG 20010904//EN"
 "http://www.w3.org/TR/2001/REC-SVG-20010904/DTD/svg10.dtd">
<svg version="1.0" xmlns="http://www.w3.org/2000/svg"
 width="192.000000pt" height="192.000000pt" viewBox="0 0 192.000000 192.000000"
 preserveAspectRatio="xMidYMid meet">
<metadata>
Created by potrace 1.14, written by Peter Selinger 2001-2017
</metadata>
<g transform="translate(0.000000,192.000000) scale(0.100000,-0.100000)"
fill="#000000" stroke="none">
<path d="M698 1620 c-38 -23 -59 -71 -83 -192 -29 -148 -49 -272 -70 -433 -9
-66 -23 -167 -31 -225 -24 -165 -29 -301 -12 -323 18 -24 89 -33 127 -17 32
13 33 14 56 104 40 154 103 264 169 298 45 23 79 18 100 -15 13 -20 11 -34
-16 -142 -37 -142 -34 -177 18 -235 67 -74 220 -99 316 -52 91 45 167 146 148
196 -14 38 -34 32 -93 -29 -78 -79 -129 -94 -172 -50 -30 29 -33 92 -9 170 38
125 44 158 34 196 -12 44 -63 92 -116 109 -57 19 -169 8 -234 -23 -30 -14 -55
-25 -56 -24 -1 1 18 117 42 257 48 278 51 327 29 370 -31 59 -100 87 -147 60z"/>
</g>
</svg>
