<?xml version="1.0" standalone="yes"?>
<svg xmlns="http://www.w3.org/2000/svg" width="225" height="225">
<path style="fill:#22529c; stroke:none;" d="M0 0L0 14C6.10409 13.079 9.59435 8.33992 15.0394 5.98997C19.3769 4.11798 24.3131 5.09904 26 0L0 0z"/>
<path style="fill:#214e92; stroke:none;" d="M26 0C23.3358 4.84731 18.6948 3.94974 14.0895 5.98997C9.03254 8.2303 5.46333 12.5268 0 14L0 16C5.30464 16 12.0259 17.1061 16.9769 14.9167C19.8703 13.6371 21.4397 10.9556 24.0787 9.34723C28.7225 6.51701 33.2034 4.99577 36 0L26 0z"/>
<path style="fill:#224887; stroke:none;" d="M0 16L0 26C3.4817 25.2985 5.83579 23.3528 9.03935 21.9545C15.9822 18.9241 24.4605 16.0058 32 16C33.4231 7.27641 47.096 6.55914 52 0C47.2332 0 40.9479 -1.07405 36.4676 0.768524C29.0626 3.81393 23.3626 11.6896 15.9815 14.8526C11.1939 16.9043 5.09786 16 0 16z"/>
<path style="fill:#204579; stroke:none;" d="M32 16C20.2047 16.0013 10.8491 22.4128 0 26L0 32L8 32C14.4926 24.9733 24.9751 25.5588 32 19C33.5133 21.2195 36.9828 17.1637 38.7778 15.5833C41.4579 13.2237 43.7059 10.6819 47 9.11111C51.9416 6.7547 59.5704 5.27817 62 0C53.1461 0.000961304 48.2243 2.70941 40.8302 7.27623C36.3735 10.0289 32.4688 10.1178 32 16z"/>
<path style="fill:#21406f; stroke:none;" d="M32 19C25.0471 23.8004 12.3795 24.8404 8 32C5.30511 31.7024 2.71692 31.903 0 32L0 43C5.41773 40.5979 10.489 40.629 16 39C16.4971 42.0661 17.0359 43.0317 20 44C22.5589 40.31 25.7891 34.7132 30.054 32.858C33.1873 31.4951 36.7301 32.3539 39.8156 30.7222C43.2659 28.8976 45.3759 25.6117 49 24C48.4023 22.8046 48.5339 23.0226 47 22C55.5416 18.2112 59.6264 8.47771 68 4L68 0C62.792 0.0219727 60.4986 2.35658 56 4.61111C50.6345 7.30008 44.8126 9.01582 40.3889 13.1944C38.6785 14.81 33.6508 20.4967 32 19z"/>
<path style="fill:#233a64; stroke:none;" d="M68 0L68 4C61.5259 5.3206 57.0311 13.4118 52.7778 17.9167C51.2517 19.533 46.5089 21.3088 49 23C45.4134 25.2327 42.6508 28.8295 38.9066 30.7222C35.7939 32.2958 32.2344 31.4402 29.1289 32.858C25.0945 34.6999 21.7784 40.1588 20 44C17.4527 42.6274 16.8125 41.7817 16 39C11.2318 40.1352 2.93748 38.7381 0.603395 44.189C-0.504785 46.777 0.000303735 50.2482 0 53L16 53L16 48C23.591 47.91 25.3859 42.6726 31.6011 39.4051C45.2867 32.2102 56.2545 22.1436 67.6566 11.6597C71.9024 7.75594 77.3654 5.34138 80 0L68 0z"/>
<path style="fill:#233960; stroke:none;" d="M23 48C27.1633 47.5242 31.4215 42.7103 35.1667 40.5C37.439 39.159 38.8073 37.4651 41 39C42.714 36.6848 44.3365 33.8579 47.1296 32.7276C50.2991 31.445 53.8604 32.4854 56.9992 30.9869C63.1875 28.0325 71.5281 20.8461 75 15C83.1121 14.3217 92.4017 7.2972 96 0C91.4795 0 85.6382 -0.979965 81.3256 0.510025C78.3996 1.52097 76.298 4.45412 73.8557 6.25464C67.4379 10.9861 61.2124 16.2538 55.348 21.6705C53.0314 23.8102 51.6037 26.4435 48.9668 28.3102C40.6314 34.2109 27.122 37.8616 23 48z"/>
<path style="fill:#24385b; stroke:none;" d="M75 15C70.1146 20.6009 62.7775 27.7616 56 30.9869C49.2766 34.1864 45.1001 31.2125 41 39C39.9774 37.4661 40.1954 37.5977 39 37C31.9974 42.7297 25.1651 47.9929 16 48L16 53L0 53L0 68L8 68L8 64L32 64L32 56L40 56L40 44C48.2741 43.9716 55.7224 40.0914 64 40L64 32L68 32C68.6365 29.4203 69.7937 27.3649 71 25C71.9857 26.4785 72 26.2032 72 28C78.0387 27.12 80.4771 22.7568 81 17L86 18C87.496 15.3294 88.7928 12.5182 91.0548 10.3873C94.9556 6.71269 99.5082 5.06557 102 0C94.7007 0.22142 92.1497 5.29361 86.9599 9.61189C84.0508 12.0325 78.6903 14.3154 75 15z"/>
<path style="fill:#22344c; stroke:none;" d="M86 18L81 17C80.3251 22.0069 76.4252 30.3126 71 25C69.3301 27.3889 68.4061 29.1151 68 32L64 32L64 40C55.68 40.0285 48.2359 43.9088 40 44L40 56L32 56L32 64C37.7268 63.5592 38.7527 59.624 43.2894 57.0278C46.7488 55.048 52.1503 56 56 56L56 50C61.5062 49.9387 66.4547 48.019 72 48C74.8342 41.9292 79.6655 39.1783 80 32L88 32C89.1218 27.643 91.643 25.1218 96 24L96 16L104 16C105.122 11.643 107.643 9.12178 112 8L113 0C109.93 0 106.269 -0.508102 103.326 0.510025C100.616 1.44739 98.8619 4.0383 96.689 5.76929C91.7433 9.70932 88.4534 11.9082 86 18z"/>
<path style="fill:#223146; stroke:none;" d="M113 0C112.499 2.68585 112.117 5.26994 112 8C107.266 8.68991 104.69 11.2657 104 16L96 16C96 21.8286 95.2431 27.7016 98 33C102.257 32.4792 106.748 32.4073 111 33C112.607 27.563 112 21.6418 112 16L128 16L128 0L113 0z"/>
<path style="fill:#232f3f; stroke:none;" d="M128 0L128 16L112 16C112 21.7167 112.331 27.4077 111 33C106.411 31.8589 101.67 32.651 97 32L96 64L100 64C100 69.582 99.533 74.8736 102 80L107 79C108.192 76.5023 109.193 73.4178 111.393 71.6026C115.328 68.3543 119.1 70.1243 120 64C130.117 63.8801 128 56.0396 128 48C131.884 48 139.175 49.3726 142.397 46.821C144.739 44.966 143.999 40.607 144 38L144 16L160 16L160 0L128 0z"/>
<path style="fill:#262f3e; stroke:none;" d="M160 0L160 16L144 16L144 33C149.282 31.7424 154.6 32 160 32C160 27.6986 158.256 18.7395 163.148 16.6034C166.538 15.1233 172.423 17.6157 174.972 14.3966C177.431 11.2924 176 3.76854 176 0L160 0z"/>
<path style="fill:#28303d; stroke:none;" d="M176 0C176 4.30142 177.744 13.2605 172.852 15.3966C169.462 16.8767 163.577 14.3843 161.028 17.6034C158.569 20.7076 160 28.2315 160 32C156.226 32 146.611 30.2385 144.603 34.3179C142.549 38.4934 145.021 43.0118 142 47C147.222 49.1914 154.368 48 160 48C160.91 42.1701 170.295 33.1881 176 32L176 16L191 16L191 0L176 0z"/>
<path style="fill:#2e313a; stroke:none;" d="M191 0L191 16L176 16L176 32C171.157 32.557 163.622 39.2142 160.983 43.4691C159.838 45.3153 159.849 47.6058 158.723 49.4823C156.11 53.8377 151.522 58.2814 148.255 62.2407C145.188 65.9564 140.195 67.7864 138 72C143.617 72.9197 143.152 76.2119 142 81C144.262 81.2192 144.026 81.0044 145 83L151 76L150 73C152.792 73.9306 153.425 74.8769 154 72L157 73C158.223 71.8048 158.42 71.6836 160 71C157.484 69.1257 155.097 68.4648 152 68C153.06 65.0656 154.053 61.2937 156.572 59.2631C159.847 56.6232 164.294 56.0446 166.721 52.2361C168.745 49.0611 166.841 44.3174 169.603 41.608C172.261 38.9999 175.048 41.6262 177.985 41.4622C182.575 41.2059 183.759 35.5825 184 32L191 32L192 24L200 24L200 20C208.558 19.8986 208 15.38 208 8C213.466 8.0605 223.873 13.4509 224.891 5.0054C225.089 3.36203 224.995 1.6506 225 0L191 0z"/>
<path style="fill:#343338; stroke:none;" d="M208 8C207.999 14.9451 208.112 19.7359 200 20L200 24L192 24C191.499 26.6858 191.117 29.2699 191 32L184 32C183.552 35.3627 182.129 40.5699 177.985 41.0309C175.182 41.3427 172.266 38.9301 169.603 41.0285C166.775 43.2565 168.516 48.4879 166.721 51.4815C164.177 55.7272 159.262 56.1856 155.889 59.2631C153.633 61.3212 152.675 65.1408 152 68C161.168 69.0906 166.713 58.7315 173.271 53.7238C177.508 50.4883 182.288 49.5792 184 44L188 44C187.402 42.8046 187.534 43.0226 186 42L192 40L192 36L196 36L196 32C199.097 31.5903 203.866 30.7892 206.456 28.9815C208.282 27.7073 208.974 25.5119 211.144 24.6026C215.039 22.97 220.837 24 225 24L225 8C219.482 11.0635 214.004 8.0206 208 8z"/>
<path style="fill:#213246; stroke:none;" d="M88 32L80 32C79.3727 38.8954 73.7621 41.737 72 48L64 48C63.9995 52.7625 63.5959 57.2845 63 62L48 62C47.9717 65.4218 47.6245 68.6368 47 72C49.1236 72.8993 49.1007 72.8764 50 75C54.7144 73.3 58.949 71.4159 64 71L64 69L59 69C63.2334 67.2968 67.488 67.9881 72 68C71.1066 63.7353 69.1817 63.1363 65 63L65 60L80 60L81 48C84.6743 48 93.4295 49.6071 95.9722 46.3966C98.5746 43.1109 97.0123 35.1486 98 31C96.2405 28.6922 96.0828 26.9077 96 24C91.2657 24.6899 88.6899 27.2657 88 32z"/>
<path style="fill:#393536; stroke:none;" d="M196 32L196 36L192 36L192 40C189.144 40 183.541 42.1082 188 43L184 44C181.36 49.1977 176.773 50.3962 172.421 53.7238C166.938 57.9156 162.203 63.425 157 68C160.98 71.7134 166.804 70.6329 172 71L172 64C180.954 62.6951 180.776 51.65 188.131 49.341C190.52 48.5912 193.713 51.3344 196 52C196.961 47.6915 198.292 42.3022 202.055 39.5988C205.529 37.1026 210.827 36.0834 215.001 36.0046C217.962 35.9487 221.917 36.5342 223.821 33.6821C225.576 31.0532 224.998 26.9986 225 24C220.71 24 214.259 22.7948 210.299 24.6026C208.279 25.5245 207.539 27.8119 205.705 28.9815C203.148 30.6125 198.951 31.3422 196 32z"/>
<path style="fill:#403634; stroke:none;" d="M224 33C219.972 37.1128 215.374 35.3154 210.17 36.2593C201.151 37.8948 197.17 43.1547 196 52C193.95 51.0346 191.335 48.5799 189 48.6312C185.417 48.7098 183.363 53.2206 181.804 55.8156C179.463 59.7124 176.442 62.8564 172 64L172 71L164 70C167.718 73.051 172.33 74.0005 177 73C177.81 69.9604 182.108 59.5491 186 62C188.042 61.1055 189.828 60.4637 192 60L192 63L196 63L198 58L200 58C201.314 59.6179 201.877 59.6933 204 60C203.693 57.8772 203.618 57.314 202 56L202 54C204.872 52.5889 207.05 50.0324 210.04 48.8434C214.471 47.0812 220.31 48 225 48C225 43.1834 225.876 37.4714 224 33z"/>
<path style="fill:#23334c; stroke:none;" d="M63 48C60.6921 49.7595 58.9077 49.9172 56 50L56 56C51.9717 56 46.0316 54.9088 42.439 57.0278C39.2337 58.9184 37.7824 62.6799 33.9606 63.6821C26.2139 65.7135 16.0034 64 8 64L8 68L0 68L0 88L16 88C16.6245 84.6368 16.9717 81.4218 17 78C23.2359 78 31.3731 80.0454 32 72C35.6656 72 44.2818 73.6 46.821 70.3966C48.517 68.257 47.9927 64.5434 48 62L63 62C63.8483 57.4308 64.8402 52.3855 63 48z"/>
<path style="fill:#213141; stroke:none;" d="M81 48L80 60L65 60L65 63C69.017 63.2998 70.5118 64.2669 72 68C67.5976 67.9635 63.3427 67.1526 59 68C61.165 69.1372 63.6846 70.3784 66.1698 70.571C70.9496 70.9414 75.9088 68.2319 79 73C79.8742 70.9479 79.9528 69.2528 80 67C82.5794 66.441 82.9724 65.4663 84 63C86.7022 63.465 90.2833 62.7252 92.7006 64.1937C97.6451 67.1973 97.4111 74.6633 95 79C95.6982 80.7033 95.8338 81.1908 96 83C97.667 85.536 97.8723 87.9657 98 91C100.267 93.6395 100.509 95.5788 100 99L104 101C103.339 96.5413 104.499 91.7369 107 88C106.964 85.9207 106.944 85.7238 108 84C107.754 81.8791 107.769 80.1258 108 78C105.867 78.4663 104.011 79.1405 102 80C100.037 74.6129 100 69.6746 100 64L96 64L96 48L81 48z"/>
<path style="fill:#28303b; stroke:none;" d="M128 48C128 55.6355 129.759 63.6822 120 64C118.564 69.4933 114.835 69.5128 110 71C113.108 72.5058 116.624 73.2278 120 74L119 77C122.903 81.9543 124.625 92.7932 124 99C125.4 100.13 126.416 101.218 128 102C127.964 99.9207 127.944 99.7238 129 98C128.491 94.5788 128.733 92.6395 131 90C130.964 87.9207 130.945 87.7238 132 86C132.594 74.5329 137.943 72.5051 145.652 65.6165C150.486 61.2971 157.152 53.7758 160 48L128 48z"/>
<path style="fill:#493b32; stroke:none;" d="M202 54L202 56C203.267 57.5431 203.489 58.0478 204 60C202.048 59.4892 201.543 59.2667 200 58L198 58C197.066 59.7227 196.465 61.1062 196 63L192 63L192 60C189.553 60.309 188.166 60.8047 186 62C181.931 58.5058 177.482 69.9597 177 73C175.203 73 175.479 73.0143 174 74C174.648 76.7092 174.942 79.2155 175 82C171.934 81.9193 168.439 82.4033 168 79C164.941 79.7287 151.038 80.8917 156.761 87.2623C158.308 88.9852 161.171 89.5457 163 91C164.714 91.1261 165.433 91.3024 167 92C168.517 91.0427 169.339 90.6128 171 90C169.363 87.8169 170.762 87.5524 168 87C169.832 87.0313 169.559 86.9205 171 88L174 88C175.669 85.2551 176.824 84.5034 180 84C182.837 73.1164 199.626 72.4896 205 63C208.749 64.1077 221.167 65.9393 223.972 62.3966C226.431 59.2917 225 51.769 225 48C220.084 48 213.715 46.9408 209.093 48.8434C206.416 49.9456 204.322 52.3247 202 54z"/>
<path style="fill:#243040; stroke:none;" d="M84 63L81 68L80 67L80 73C79.0143 71.5215 79 71.7968 79 70L68 70L71 73C72.645 73.1773 72.6468 73.1411 74 74L78 73C78.764 77.8482 81.667 82.0188 82.5802 87C83.8984 94.1901 83.3823 102.709 83 110C84.1473 112.4 83.0136 115.251 84.3711 117.566C86.7407 121.608 95.0915 120.159 99 120C99.9857 118.521 100 118.797 100 117C102.095 117.238 103.889 117.184 106 117L103 119C108.395 120.842 116.478 120.314 122 119L121 116C122.186 117.186 122.528 117.584 123 119C125.213 118.573 126.971 117.982 129 117C129 118.797 129.014 118.521 130 120C130.406 118.341 130.309 117.758 130 116L134 116C133.93 114.048 133.646 114.06 135 113C129.858 111.742 123.17 118.788 121 110C119.944 108.276 119.964 108.079 120 106C116.776 101.178 115.471 93.7642 115 88C109.238 93.9387 112.359 104.761 107 111L108 114C103.77 115.004 100.249 114.788 96 114L97 111C94.2469 107.934 93.4386 105.075 94 101C91.9985 98.6322 91.7389 97.0881 92 94C91.1411 92.6468 91.1773 92.645 91 91C89.1427 88.6601 88.9266 86.989 89 84C87.1178 81.8793 86.8624 80.8417 87 78C85.4181 75.9434 85.1744 74.6125 85 72L94 72C94.4637 74.1722 95.1055 75.9583 96 78C97.6893 73.9727 97.3308 65.9567 92.7006 63.7454C90.2074 62.5546 86.6967 63.1432 84 63z"/>
<path style="fill:#513e30; stroke:none;" d="M205 63C201.749 66.8105 196.867 70.2546 192.399 72.5949C187.177 75.3302 180.937 77.6074 180 84C176.602 84.2678 175.285 84.7947 174 88C172.085 86.7233 172.915 86.7233 171 88C170.02 86.2167 170.092 86.4057 168 86C169.637 88.1832 168.238 88.4476 171 89C169.521 89.9857 169.797 90 168 90C170.12 91.7212 171.265 92.0349 174 92L176 97C182.764 95.6256 184.94 88.5434 192 88C197.934 76.0884 216.285 78.475 220 65L225 66L225 63C218.817 64.4558 211.181 64.4675 205 63z"/>
<path style="fill:#60442c; stroke:none;" d="M220 65C218.277 68.8737 214.555 73.2399 210.674 75.1752C203.778 78.6143 194.613 79.493 192 88C184.931 88.2342 183.238 95.1427 177 96C178.171 102.408 175.634 106.799 175 113C170.699 113.302 167.407 116.038 163 116C161.212 117.422 160.294 117.697 158 118C156.98 121.376 156.236 124.475 156 128C156.061 127.954 157.821 126.022 158 126C160.808 125.649 161.25 128.751 162 125C166.616 125.516 171.344 125.001 176 125C172.879 123.599 169.411 123.27 166 123C167.745 122.11 169.125 121.547 171 121C169.999 119.076 169.923 118.902 168 118C169.847 117.79 171.143 117.806 173 118C173 116.203 172.986 116.478 172 115C175.751 115.732 179.214 115.16 183 115L182 110C186.244 107.745 191.157 106.067 192 101C198.105 102.628 200.723 98.8879 206.039 96.8395C208.561 95.8677 211.285 96.2658 213.83 95.4545C217.425 94.3085 220.149 92.5332 224 92C224.849 85.2849 228.904 66.486 220 65z"/>
<path style="fill:#000000; stroke:none;" d="M59 71C62.6975 72.5515 67.0168 72 71 72C67.3025 70.4485 62.9832 71 59 71z"/>
<path style="fill:#090708; stroke:none;" d="M157 71C159.89 72.2129 162.874 71.9983 166 72C163.11 70.7871 160.126 71.0017 157 71z"/>
<path style="fill:#213244; stroke:none;" d="M32 72C30.7765 79.6716 23.1553 78 17 78L16 88L0 88L0 112C3.54498 111.652 11.8632 113.178 14.581 110.73C17.5641 108.042 16 99.6696 16 96C26.0124 96 38.3798 93.9379 48 97L49 93C50.4785 93.9857 50.2032 94 52 94C54.538 91.4942 56.4401 90.7934 60 91C63.613 87.8886 67.6107 89.1736 72 90C73.2621 77.3663 59.0121 78.8039 51 83L50 72L32 72z"/>
<path style="fill:#141f28; stroke:none;" d="M54 74C55.58 73.3164 55.7772 73.1952 57 72C55.42 72.6836 55.2228 72.8048 54 74z"/>
<path style="fill:#00000a; stroke:none;" d="M57.6667 72.3333C57.2222 72.7778 58.2778 72.7222 58.3333 72.6667C58.7778 72.2222 57.7222 72.2778 57.6667 72.3333z"/>
<path style="fill:#38404c; stroke:none;" d="M59 72L60 73L59 72z"/>
<path style="fill:#858a98; stroke:none;" d="M60 72L61 73L60 72z"/>
<path style="fill:#e4ebf1; stroke:none;" d="M61 72C63.0521 72.8742 64.7472 72.9528 67 73C64.9479 72.1257 63.2528 72.0472 61 72z"/>
<path style="fill:#c9cfd8; stroke:none;" d="M67 72C68.2484 72.6848 68.5484 72.7488 70 73C68.7517 72.3152 68.4515 72.2512 67 72z"/>
<path style="fill:#727984; stroke:none;" d="M70 72L71 73L70 72z"/>
<path style="fill:#000009; stroke:none;" d="M72.6667 72.3333C72.2222 72.7778 73.2778 72.7222 73.3333 72.6667C73.7778 72.2222 72.7222 72.2778 72.6667 72.3333z"/>
<path style="fill:#111e27; stroke:none;" d="M85 72L85 75C86.0154 73.8607 86.3087 73.3884 87 72L85 72z"/>
<path style="fill:#00060f; stroke:none;" d="M87 72C89.3316 72.9845 91.4566 72.9813 94 73C91.6684 72.0155 89.5434 72.0187 87 72z"/>
<path style="fill:#000107; stroke:none;" d="M110 72C111.769 72.7789 113.036 72.9124 115 73C113.231 72.2211 111.964 72.0876 110 72z"/>
<path style="fill:#0d1017; stroke:none;" d="M135 72C137.613 73.0977 140.164 72.9928 143 73C140.387 71.9023 137.836 72.0072 135 72z"/>
<path style="fill:#000000; stroke:none;" d="M154.667 72.3333C154.222 72.7778 155.278 72.7222 155.333 72.6667C155.778 72.2222 154.722 72.2778 154.667 72.3333z"/>
<path style="fill:#8a8a87; stroke:none;" d="M157 72L158 73L157 72z"/>
<path style="fill:#cececb; stroke:none;" d="M158.667 72.3333C158.222 72.7778 159.278 72.7222 159.333 72.6667C159.778 72.2222 158.722 72.2778 158.667 72.3333z"/>
<path style="fill:#fffffe; stroke:none;" d="M146 107C146.428 119.895 169.862 118.597 174.821 108.985C175.62 107.436 175.887 105.723 175.941 104C176.367 90.3152 161.555 94.6031 155.786 86.6073C153.515 83.4595 155.975 80.3661 159.044 79.1628C163.915 77.2525 169.279 79.7479 174 81C173.589 68.6313 151.61 70.043 147.742 80.0046C147.135 81.5697 147.008 83.3369 147.059 85C147.456 97.7141 161.608 93.8476 167.238 101.394C172.736 108.762 159.297 110.391 155 109.482C151.959 108.839 149.033 107.702 146 107z"/>
<path style="fill:#aba6a7; stroke:none;" d="M164.667 72.3333C164.222 72.7778 165.278 72.7222 165.333 72.6667C165.778 72.2222 164.722 72.2778 164.667 72.3333z"/>
<path style="fill:#726e6d; stroke:none;" d="M166 72L167 73L166 72z"/>
<path style="fill:#1c1714; stroke:none;" d="M168 72C169.248 72.6848 169.549 72.7488 171 73C169.752 72.3152 169.452 72.2512 168 72z"/>
<path style="fill:#96a0a9; stroke:none;" d="M56 73L57 74L56 73z"/>
<path style="fill:#ffffff; stroke:none;" d="M51 81C58.8102 80.319 70.2366 75.1605 73.4275 85.9961C74.0011 87.9442 73.957 89.9936 74 92C68.3052 91.2803 61.5355 89.7567 56.0008 92.0093C46.8783 95.7219 44.7001 109.585 54.0432 114.543C61.5747 118.54 68.8004 114.032 75 110L77 115C79.1655 114.557 81.7062 114.183 82.598 111.772C83.6505 108.926 81.4893 104.907 81.1736 102C80.2402 93.4057 84.3852 79.4599 74.9568 74.4568C67.8675 70.6949 51.7531 71.2505 51 81z"/>
<path style="fill:#b7bdca; stroke:none;" d="M73 73L74 74L73 73z"/>
<path style="fill:#070b17; stroke:none;" d="M75 73C76.2227 74.1951 76.4201 74.3164 78 75C77.0198 73.2167 77.0924 73.4057 75 73z"/>
<path style="fill:#b9c2c7; stroke:none;" d="M86 73C88.3316 73.9845 90.4567 73.9813 93 74C90.6684 73.0155 88.5434 73.0187 86 73z"/>
<path style="fill:#474d59; stroke:none;" d="M93 73L94 74L93 73z"/>
<path style="fill:#061117; stroke:none;" d="M109.333 73.6667C109.278 73.7222 109.222 74.7778 109.667 74.3333C109.722 74.2777 109.778 73.2223 109.333 73.6667z"/>
<path style="fill:#3c464f; stroke:none;" d="M110 73L111 74L110 73z"/>
<path style="fill:#b3bac3; stroke:none;" d="M111 73C113.052 73.8742 114.747 73.9528 117 74C114.948 73.1258 113.253 73.0472 111 73z"/>
<path style="fill:#818892; stroke:none;" d="M117 73L118 74L117 73z"/>
<path style="fill:#6e757e; stroke:none;" d="M135 73L136 74L135 73z"/>
<path style="fill:#b7bbc2; stroke:none;" d="M136 73C138.052 73.8743 139.747 73.9528 142 74C139.948 73.1257 138.253 73.0472 136 73z"/>
<path style="fill:#777a80; stroke:none;" d="M142 73L143 74L142 73z"/>
<path style="fill:#171b1f; stroke:none;" d="M147.667 73.3333C147.222 73.7778 148.278 73.7222 148.333 73.6667C148.778 73.2222 147.722 73.2777 147.667 73.3333z"/>
<path style="fill:#181c1d; stroke:none;" d="M150 73L150 75L152 75C151.455 73.3648 151.635 73.545 150 73z"/>
<path style="fill:#000000; stroke:none;" d="M152 73L153 74L152 73z"/>
<path style="fill:#abaaab; stroke:none;" d="M154 73L155 74L154 73z"/>
<path style="fill:#d4cfcc; stroke:none;" d="M169 73L170 74L169 73z"/>
<path style="fill:#8c8784; stroke:none;" d="M170 73L171 74L170 73z"/>
<path style="fill:#000000; stroke:none;" d="M51.6667 74.3333C51.2222 74.7778 52.2778 74.7222 52.3333 74.6667C52.7778 74.2222 51.7222 74.2778 51.6667 74.3333z"/>
<path style="fill:#737c85; stroke:none;" d="M53 74L54 75L53 74z"/>
<path style="fill:#bfc2ce; stroke:none;" d="M75 74L76 75L75 74z"/>
<path style="fill:#ffffff; stroke:none;" d="M86 74C87.6875 85.4269 92.5863 96.9099 95.8596 107.999C97.0433 112.009 99.3841 116.917 104.582 114.396C107.435 113.012 107.954 108.747 108.575 106C110.309 98.3225 112.028 90.62 114 83C116.407 90.0962 117.798 97.6816 119.424 105C120.021 107.687 120.385 112.156 122.728 113.972C127.148 117.399 131.034 112.822 132.275 108.995C135.814 98.091 141.476 85.4627 142 74C139.686 74.0276 136.804 73.6967 135.09 75.6034C132.981 77.9488 132.838 82.0712 132.105 85C130.281 92.2878 127.615 99.4746 127 107C123.999 100.026 122.959 92.3396 121.127 85C120.419 82.1659 120.098 77.8451 118.062 75.6034C115.558 72.8456 110.688 73.8737 109.343 77.1481C105.964 85.3759 103.722 97.1559 103 106C99.6149 99.2565 98.4517 91.2984 96.6265 84C95.9525 81.3046 95.6248 76.8648 93.2724 75.0278C91.3841 73.5533 88.2307 74.0079 86 74z"/>
<path style="fill:#979ea9; stroke:none;" d="M118 74L119 75L118 74z"/>
<path style="fill:#000000; stroke:none;" d="M119.333 74.6667C119.278 74.7222 119.222 75.7778 119.667 75.3333C119.722 75.2777 119.778 74.2223 119.333 74.6667z"/>
<path style="fill:#dadbdf; stroke:none;" d="M142.333 74.6667C142.278 74.7222 142.222 75.7778 142.667 75.3333C142.722 75.2778 142.778 74.2222 142.333 74.6667z"/>
<path style="fill:#090d10; stroke:none;" d="M143 74L143 77C143.696 75.4463 143.696 75.5537 143 74z"/>
<path style="fill:#aaa19e; stroke:none;" d="M172 74L173 75L172 74z"/>
<path style="fill:#0e0603; stroke:none;" d="M173 74L174 75L173 74z"/>
<path style="fill:#87929c; stroke:none;" d="M51 75L52 76L51 75z"/>
<path style="fill:#41454f; stroke:none;" d="M77 75L78 76L77 75z"/>
<path style="fill:#000000; stroke:none;" d="M85 75L85 78C85.6961 76.4463 85.6961 76.5537 85 75z"/>
<path style="fill:#767785; stroke:none;" d="M94 75L95 76L94 75z"/>
<path style="fill:#000000; stroke:none;" d="M108 75L108 79C108.71 77.2405 108.71 76.7595 108 75z"/>
<path style="fill:#707b7e; stroke:none;" d="M109 75L110 76L109 75z"/>
<path style="fill:#000000; stroke:none;" d="M133 75L133 78C133.696 76.4463 133.696 76.5537 133 75z"/>
<path style="fill:#a0a5ab; stroke:none;" d="M134 75L135 76L134 75z"/>
<path style="fill:#100805; stroke:none;" d="M174 75L175 76L174 75z"/>
<path style="fill:#000000; stroke:none;" d="M95.3333 76.6667C95.2778 76.7222 95.2222 77.7778 95.6667 77.3333C95.7222 77.2778 95.7778 76.2222 95.3333 76.6667z"/>
<path style="fill:#6e6f73; stroke:none;" d="M142 76L143 77L142 76z"/>
<path style="fill:#1a2020; stroke:none;" d="M146.667 76.3333C146.222 76.7778 147.278 76.7222 147.333 76.6667C147.778 76.2222 146.722 76.2777 146.667 76.3333z"/>
<path style="fill:#676c6d; stroke:none;" d="M149 76L150 77L149 76z"/>
<path style="fill:#8d8281; stroke:none;" d="M174 76L174 81C174.83 78.9695 174.83 78.0305 174 76z"/>
<path style="fill:#8a91a2; stroke:none;" d="M50 77L50 81C50.7102 79.2405 50.7102 78.7595 50 77z"/>
<path style="fill:#000000; stroke:none;" d="M79 77L80 78L79 77z"/>
<path style="fill:#8a9695; stroke:none;" d="M86 77L87 78L86 77z"/>
<path style="fill:#898d96; stroke:none;" d="M119 77L120 78L119 77z"/>
<path style="fill:#00010d; stroke:none;" d="M120 77L120 81C120.71 79.2405 120.71 78.7595 120 77z"/>
<path style="fill:#000000; stroke:none;" d="M142.333 77.6667C142.278 77.7222 142.222 78.7778 142.667 78.3333C142.722 78.2777 142.778 77.2223 142.333 77.6667z"/>
<path style="fill:#acb4b9; stroke:none;" d="M79 78L80 79L79 78z"/>
<path style="fill:#000008; stroke:none;" d="M80.3333 78.6667C80.2778 78.7222 80.2222 79.7778 80.6667 79.3333C80.7222 79.2778 80.7777 78.2223 80.3333 78.6667z"/>
<path style="fill:#c0c4ce; stroke:none;" d="M119 78L120 79L119 78z"/>
<path style="fill:#676c73; stroke:none;" d="M133 78L134 79L133 78z"/>
<path style="fill:#c9c7c9; stroke:none;" d="M160 78C161.769 78.7789 163.036 78.9124 165 79C163.231 78.2211 161.964 78.0876 160 78z"/>
<path style="fill:#a5aaad; stroke:none;" d="M58 79L59 80L58 79z"/>
<path style="fill:#4c5156; stroke:none;" d="M59 79L60 80L59 79z"/>
<path style="fill:#000000; stroke:none;" d="M60 79C62.6127 80.0977 65.1645 79.9928 68 80C65.3873 78.9023 62.8355 79.0072 60 79z"/>
<path style="fill:#5a5d69; stroke:none;" d="M68 79L69 80L68 79z"/>
<path style="fill:#c6cad3; stroke:none;" d="M69 79L70 80L69 79z"/>
<path style="fill:#0f1c22; stroke:none;" d="M86 79C86.4057 81.0924 86.2167 81.0198 88 82C87.3087 80.6116 87.0154 80.1394 86 79z"/>
<path style="fill:#9698a5; stroke:none;" d="M95 79L96 80L95 79z"/>
<path style="fill:#616c71; stroke:none;" d="M108 79L109 80L108 79z"/>
<path style="fill:#000000; stroke:none;" d="M132.333 79.6667C132.278 79.7222 132.222 80.7778 132.667 80.3333C132.722 80.2777 132.778 79.2223 132.333 79.6667z"/>
<path style="fill:#74767a; stroke:none;" d="M141 79L142 80L141 79z"/>
<path style="fill:#a3a7a6; stroke:none;" d="M147 79L148 80L147 79z"/>
<path style="fill:#757570; stroke:none;" d="M157 79L158 80L157 79z"/>
<path style="fill:#140e0f; stroke:none;" d="M158 79C160.89 80.213 163.874 79.9983 167 80C164.11 78.7871 161.126 79.0017 158 79z"/>
<path style="fill:#89817f; stroke:none;" d="M168 79L169 80L168 79z"/>
<path style="fill:#d8cfcc; stroke:none;" d="M169 79L170 80L169 79z"/>
<path style="fill:#828a96; stroke:none;" d="M55 80L56 81L55 80z"/>
<path style="fill:#000310; stroke:none;" d="M56 80C57.2483 80.6848 57.5485 80.7488 59 81C57.7516 80.3152 57.4516 80.2512 56 80z"/>
<path style="fill:#000000; stroke:none;" d="M69 80L70 81L69 80z"/>
<path style="fill:#363c49; stroke:none;" d="M70 80L71 81L70 80z"/>
<path style="fill:#a1abb1; stroke:none;" d="M80 80L81 81L80 80z"/>
<path style="fill:#000009; stroke:none;" d="M81 80L81 83C81.6961 81.4463 81.6961 81.5537 81 80z"/>
<path style="fill:#9aa9a8; stroke:none;" d="M87 80L88 81L87 80z"/>
<path style="fill:#000003; stroke:none;" d="M96.3333 80.6667C96.2778 80.7222 96.2222 81.7778 96.6667 81.3333C96.7223 81.2777 96.7777 80.2223 96.3333 80.6667z"/>
<path style="fill:#000000; stroke:none;" d="M107 80L107 83C107.696 81.4463 107.696 81.5537 107 80z"/>
<path style="fill:#b3bcc2; stroke:none;" d="M108 80L109 81L108 80z"/>
<path style="fill:#1e1f20; stroke:none;" d="M141 80L140 84C141.656 82.5957 141.751 82.0465 141 80z"/>
<path style="fill:#3e3935; stroke:none;" d="M143 80C141.825 82.3387 140.822 84.1419 139 86C139.357 91.4679 136.534 97.6427 135.223 103C134.195 107.203 132.056 109.221 135 113C133.4 114.062 133.719 113.884 134 116C132.316 115.776 131.686 115.782 130 116L131 120C129.814 118.814 129.472 118.416 129 117L127 117L126 119C127.781 122.201 127.967 125.548 129 129C131.975 127.894 132.872 128.74 135 131C137.086 126.028 136.221 121.051 139 116C146.257 121.03 146.369 110.836 145 106C151.883 107.335 156.627 109.942 164 109C162.457 107.733 161.952 107.511 160 107L162 99C152.436 93.9794 145.97 92.1664 145 80L143 80z"/>
<path style="fill:#c1bdbc; stroke:none;" d="M155 80L156 81L155 80z"/>
<path style="fill:#292323; stroke:none;" d="M155 83C156.457 81.8966 156.897 81.4566 158 80C155.876 80.8993 155.899 80.8764 155 83z"/>
<path style="fill:#2b221d; stroke:none;" d="M168 82L175 82C172.434 80.641 170.114 79.7742 168 82z"/>
<path style="fill:#9f9690; stroke:none;" d="M171 80L172 81L171 80z"/>
<path style="fill:#b6bcce; stroke:none;" d="M51.6667 81.3333C51.2222 81.7778 52.2778 81.7222 52.3333 81.6667C52.7778 81.2222 51.7222 81.2778 51.6667 81.3333z"/>
<path style="fill:#00010d; stroke:none;" d="M70 81C70.5451 82.6352 70.3648 82.4549 72 83L72 81L70 81z"/>
<path style="fill:#5d5d68; stroke:none;" d="M120 81L121 82L120 81z"/>
<path style="fill:#585a56; stroke:none;" d="M146 81L147 82L146 81z"/>
<path style="fill:#030c1d; stroke:none;" d="M51.6667 82.3333C51.2222 82.7778 52.2778 82.7222 52.3333 82.6667C52.7778 82.2222 51.7222 82.2778 51.6667 82.3333z"/>
<path style="fill:#6a6e7a; stroke:none;" d="M72 82L73 83L72 82z"/>
<path style="fill:#000000; stroke:none;" d="M87.3333 82.6667C87.2778 82.7222 87.2222 83.7778 87.6667 83.3333C87.7222 83.2778 87.7777 82.2223 87.3333 82.6667z"/>
<path style="fill:#bab9c4; stroke:none;" d="M120 82L121 83L120 82z"/>
<path style="fill:#000000; stroke:none;" d="M121 82L122 89C122.965 86.2944 122.466 84.45 121 82z"/>
<path style="fill:#7d8184; stroke:none;" d="M132 82L133 83L132 82z"/>
<path style="fill:#919193; stroke:none;" d="M140 82L141 83L140 82z"/>
<path style="fill:#d4d4d2; stroke:none;" d="M146 82L146 86C146.71 84.2405 146.71 83.7595 146 82z"/>
<path style="fill:#6b6565; stroke:none;" d="M154 82L155 83L154 82z"/>
<path style="fill:#000916; stroke:none;" d="M72 83L72 87C72.7102 85.2405 72.7102 84.7595 72 83z"/>
<path style="fill:#b8c7c7; stroke:none;" d="M88 83L89 84L88 83z"/>
<path style="fill:#939aa9; stroke:none;" d="M96 83L97 84L96 83z"/>
<path style="fill:#000000; stroke:none;" d="M97 83L97 86C97.6961 84.4463 97.6961 84.5537 97 83z"/>
<path style="fill:#c1c2c4; stroke:none;" d="M114 83L115 84L114 83z"/>
<path style="fill:#000206; stroke:none;" d="M131.333 83.6667C131.278 83.7222 131.222 84.7778 131.667 84.3333C131.722 84.2777 131.778 83.2223 131.333 83.6667z"/>
<path style="fill:#ced2d6; stroke:none;" d="M132 83L133 84L132 83z"/>
<path style="fill:#070906; stroke:none;" d="M145.333 83.6667C145.278 83.7222 145.222 84.7778 145.667 84.3333C145.722 84.2777 145.778 83.2223 145.333 83.6667z"/>
<path style="fill:#1c1817; stroke:none;" d="M154.333 83.6667C154.278 83.7222 154.222 84.7778 154.667 84.3333C154.722 84.2777 154.778 83.2223 154.333 83.6667z"/>
<path style="fill:#6b767c; stroke:none;" d="M81 84L82 85L81 84z"/>
<path style="fill:#000000; stroke:none;" d="M106 84L106 87C106.696 85.4463 106.696 85.5537 106 84z"/>
<path style="fill:#a6b2b7; stroke:none;" d="M107 84L108 85L107 84z"/>
<path style="fill:#bfc4c8; stroke:none;" d="M113 84L114 85L113 84z"/>
<path style="fill:#686c70; stroke:none;" d="M114 84L115 85L114 84z"/>
<path style="fill:#060609; stroke:none;" d="M140.333 84.6667C140.278 84.7222 140.222 85.7778 140.667 85.3333C140.722 85.2778 140.778 84.2222 140.333 84.6667z"/>
<path style="fill:#9aa4ad; stroke:none;" d="M73 85L74 86L73 85z"/>
<path style="fill:#b4bec8; stroke:none;" d="M81 85L81 105C83.0866 100.027 83.0866 89.9727 81 85z"/>
<path style="fill:#000916; stroke:none;" d="M82 85L82 107C84.2187 101.713 84.2187 90.2873 82 85z"/>
<path style="fill:#000000; stroke:none;" d="M88.3333 85.6667C88.2778 85.7222 88.2222 86.7778 88.6667 86.3333C88.7223 86.2777 88.7778 85.2223 88.3333 85.6667z"/>
<path style="fill:#7d8387; stroke:none;" d="M113 85L114 86L113 85z"/>
<path style="fill:#000000; stroke:none;" d="M114 85L113 89C114.303 87.3324 114.553 87.0078 114 85z"/>
<path style="fill:#4e4d56; stroke:none;" d="M121 85L122 86L121 85z"/>
<path style="fill:#b1b1ae; stroke:none;" d="M139 85L140 86L139 85z"/>
<path style="fill:#6e6a69; stroke:none;" d="M154 85L155 86L154 85z"/>
<path style="fill:#626b75; stroke:none;" d="M73 86L74 87L73 86z"/>
<path style="fill:#becaca; stroke:none;" d="M89 86L90 87L89 86z"/>
<path style="fill:#272f36; stroke:none;" d="M113 86L114 87L113 86z"/>
<path style="fill:#a8a9af; stroke:none;" d="M121 86L122 87L121 86z"/>
<path style="fill:#080d13; stroke:none;" d="M130 86L130 89C130.696 87.4463 130.696 87.5537 130 86z"/>
<path style="fill:#82878b; stroke:none;" d="M131 86L132 87L131 86z"/>
<path style="fill:#a2a19f; stroke:none;" d="M146 86L147 87L146 86z"/>
<path style="fill:#000000; stroke:none;" d="M155 86L156 87L155 86z"/>
<path style="fill:#454e58; stroke:none;" d="M73 87L73 91C73.7102 89.2405 73.7102 88.7595 73 87z"/>
<path style="fill:#7e8b8a; stroke:none;" d="M89 87L90 88L89 87z"/>
<path style="fill:#959eac; stroke:none;" d="M97 87L98 88L97 87z"/>
<path style="fill:#c5cace; stroke:none;" d="M131 87L132 88L131 87z"/>
<path style="fill:#0f0f0d; stroke:none;" d="M139 87L139 90C139.696 88.4463 139.696 88.5537 139 87z"/>
<path style="fill:#6c6b69; stroke:none;" d="M146 87L147 88L146 87z"/>
<path style="fill:#cecac9; stroke:none;" d="M155 87L156 88L155 87z"/>
<path style="fill:#061324; stroke:none;" d="M60 89C63.0914 90.3093 66.6719 90.3817 70 91C67.5135 88.114 63.5806 88.6182 60 89z"/>
<path style="fill:#0f1922; stroke:none;" d="M72.3333 88.6667C72.2778 88.7222 72.2222 89.7778 72.6667 89.3333C72.7223 89.2777 72.7777 88.2223 72.3333 88.6667z"/>
<path style="fill:#000003; stroke:none;" d="M89 88L89 91C89.6961 89.4463 89.6961 89.5537 89 88z"/>
<path style="fill:#00000e; stroke:none;" d="M98.3333 88.6667C98.2778 88.7222 98.2222 89.7778 98.6667 89.3333C98.7223 89.2777 98.7777 88.2223 98.3333 88.6667z"/>
<path style="fill:#000003; stroke:none;" d="M105 88L105 91C105.696 89.4463 105.696 89.5537 105 88z"/>
<path style="fill:#8f98a2; stroke:none;" d="M106 88L107 89L106 88z"/>
<path style="fill:#a7aab4; stroke:none;" d="M115 88L116 89L115 88z"/>
<path style="fill:#bebebc; stroke:none;" d="M138 88L139 89L138 88z"/>
<path style="fill:#1d1918; stroke:none;" d="M146.333 88.6667C146.278 88.7222 146.222 89.7778 146.667 89.3333C146.722 89.2778 146.778 88.2223 146.333 88.6667z"/>
<path style="fill:#737370; stroke:none;" d="M157 88L158 89L157 88z"/>
<path style="fill:#6d4d27; stroke:none;" d="M224 88L224 92C219.703 92.3553 216.883 94.2243 212.91 95.4545C210.349 96.2476 207.613 95.8416 205.09 96.8395C200.118 98.8057 197.743 101.998 192 101C190.551 105.791 185.832 107.143 182 110L183 115C179.297 115.066 175.692 115.394 172 115L173 118L168 117L171 121L166 122C169.807 124.024 174.041 123.475 177.999 124.995C182.169 126.596 184.478 129.536 187 133C189.629 127.386 191.931 122.271 192 116L196 116C197.568 113.057 199.836 111.869 202.255 109.64C209.031 103.392 215.466 97.4343 225 96C224.993 93.1645 225.098 90.6127 224 88z"/>
<path style="fill:#ccd5df; stroke:none;" d="M106 89L107 90L106 89z"/>
<path style="fill:#a1a8b3; stroke:none;" d="M112 89L113 90L112 89z"/>
<path style="fill:#4e555d; stroke:none;" d="M115 89L116 90L115 89z"/>
<path style="fill:#60605e; stroke:none;" d="M138 89L139 90L138 89z"/>
<path style="fill:#a4a09f; stroke:none;" d="M147 89L148 90L147 89z"/>
<path style="fill:#a5a5a0; stroke:none;" d="M159 89L160 90L159 89z"/>
<path style="fill:#211c16; stroke:none;" d="M160 89C161.248 89.6848 161.548 89.7488 163 90C161.752 89.3152 161.452 89.2512 160 89z"/>
<path style="fill:#000000; stroke:none;" d="M56 90C57.2483 90.6848 57.5485 90.7488 59 91C57.7516 90.3152 57.4516 90.2512 56 90z"/>
<path style="fill:#99a1ad; stroke:none;" d="M60 90C62.3316 90.9845 64.4566 90.9813 67 91C64.6685 90.0155 62.5433 90.0187 60 90z"/>
<path style="fill:#5f6a74; stroke:none;" d="M67 90L68 91L67 90z"/>
<path style="fill:#000000; stroke:none;" d="M70 90C71.2484 90.6848 71.5484 90.7488 73 91C71.7517 90.3152 71.4515 90.2512 70 90z"/>
<path style="fill:#8a9496; stroke:none;" d="M90 90L91 91L90 90z"/>
<path style="fill:#000000; stroke:none;" d="M115 90L115 93C115.696 91.4463 115.696 91.5537 115 90z"/>
<path style="fill:#868789; stroke:none;" d="M122 90L123 91L122 90z"/>
<path style="fill:#000004; stroke:none;" d="M129 90L129 93C129.696 91.4463 129.696 91.5537 129 90z"/>
<path style="fill:#8d9399; stroke:none;" d="M130 90L131 91L130 90z"/>
<path style="fill:#060604; stroke:none;" d="M138.333 90.6667C138.278 90.7222 138.222 91.7778 138.667 91.3333C138.722 91.2778 138.778 90.2222 138.333 90.6667z"/>
<path style="fill:#908b87; stroke:none;" d="M162 90L163 91L162 90z"/>
<path style="fill:#201911; stroke:none;" d="M164.667 90.3333C164.222 90.7778 165.278 90.7222 165.333 90.6667C165.778 90.2222 164.722 90.2778 164.667 90.3333z"/>
<path style="fill:#000711; stroke:none;" d="M54.6667 91.3333C54.2222 91.7778 55.2778 91.7222 55.3333 91.6667C55.7778 91.2222 54.7222 91.2778 54.6667 91.3333z"/>
<path style="fill:#a5b0bb; stroke:none;" d="M56 91L57 92L56 91z"/>
<path style="fill:#dee3ea; stroke:none;" d="M70.6667 91.3333C70.2222 91.7778 71.2778 91.7222 71.3333 91.6667C71.7777 91.2223 70.7223 91.2777 70.6667 91.3333z"/>
<path style="fill:#8b9194; stroke:none;" d="M72.6667 91.3333C72.2222 91.7778 73.2778 91.7222 73.3333 91.6667C73.7778 91.2222 72.7222 91.2778 72.6667 91.3333z"/>
<path style="fill:#9298a5; stroke:none;" d="M98 91L99 92L98 91z"/>
<path style="fill:#000000; stroke:none;" d="M99 91L99 94C99.6961 92.4463 99.6961 92.5537 99 91z"/>
<path style="fill:#000003; stroke:none;" d="M112.333 91.6667C112.278 91.7222 112.222 92.7778 112.667 92.3333C112.722 92.2777 112.778 91.2223 112.333 91.6667z"/>
<path style="fill:#000000; stroke:none;" d="M123 91L123 94C123.696 92.4463 123.696 92.5537 123 91z"/>
<path style="fill:#d3d6d2; stroke:none;" d="M137 91L138 92L137 91z"/>
<path style="fill:#6e6b6a; stroke:none;" d="M148 91L149 92L148 91z"/>
<path style="fill:#a7a29c; stroke:none;" d="M165 91L166 92L165 91z"/>
<path style="fill:#32281c; stroke:none;" d="M167 91C168.458 92.0811 169.248 92.4361 171 93C169.457 91.7333 168.952 91.5108 167 91z"/>
<path style="fill:#00000a; stroke:none;" d="M52.6667 92.3333C52.2222 92.7778 53.2778 92.7222 53.3333 92.6667C53.7778 92.2222 52.7222 92.2778 52.6667 92.3333z"/>
<path style="fill:#afb9c4; stroke:none;" d="M54 92L55 93L54 92z"/>
<path style="fill:#000007; stroke:none;" d="M90.3333 92.6667C90.2778 92.7222 90.2222 93.7778 90.6667 93.3333C90.7223 93.2777 90.7777 92.2223 90.3333 92.6667z"/>
<path style="fill:#757e88; stroke:none;" d="M105 92L106 93L105 92z"/>
<path style="fill:#acb3b9; stroke:none;" d="M116 92L117 93L116 92z"/>
<path style="fill:#6a6d69; stroke:none;" d="M137 92L138 93L137 92z"/>
<path style="fill:#9a9494; stroke:none;" d="M149 92L150 93L149 92z"/>
<path style="fill:#b7afa4; stroke:none;" d="M168 92L169 93L168 92z"/>
<path style="fill:#433626; stroke:none;" d="M171 93C173.458 95.8691 175.471 98.5286 177 102C178.215 98.2639 175.929 95.1993 174 92C172.203 92 172.479 92.0143 171 93z"/>
<path style="fill:#121f25; stroke:none;" d="M49 93L48 98C49.7552 96.0147 50.1992 95.3582 49 93z"/>
<path style="fill:#5b6570; stroke:none;" d="M52 93L53 94L52 93z"/>
<path style="fill:#bbbfc2; stroke:none;" d="M91 93L92 94L91 93z"/>
<path style="fill:#000000; stroke:none;" d="M104 93L104 96C104.696 94.4463 104.696 94.5537 104 93z"/>
<path style="fill:#c6cfd6; stroke:none;" d="M105 93L106 94L105 93z"/>
<path style="fill:#aeb2b4; stroke:none;" d="M111 93L112 94L111 93z"/>
<path style="fill:#5a6167; stroke:none;" d="M116 93L117 94L116 93z"/>
<path style="fill:#141821; stroke:none;" d="M128 93L128 97C128.71 95.2405 128.71 94.7595 128 93z"/>
<path style="fill:#424650; stroke:none;" d="M129 93L130 94L129 93z"/>
<path style="fill:#030603; stroke:none;" d="M137.333 93.6667C137.278 93.7222 137.222 94.7778 137.667 94.3333C137.722 94.2778 137.778 93.2222 137.333 93.6667z"/>
<path style="fill:#090303; stroke:none;" d="M149 93L150 94L149 93z"/>
<path style="fill:#7b7776; stroke:none;" d="M150 93L151 94L150 93z"/>
<path style="fill:#b7ada1; stroke:none;" d="M170 93L171 94L170 93z"/>
<path style="fill:#7e8893; stroke:none;" d="M51 94L52 95L51 94z"/>
<path style="fill:#424856; stroke:none;" d="M99 94L100 95L99 94z"/>
<path style="fill:#00020f; stroke:none;" d="M100 94L100 98C100.71 96.2405 100.71 95.7595 100 94z"/>
<path style="fill:#565659; stroke:none;" d="M111 94L112 95L111 94z"/>
<path style="fill:#000000; stroke:none;" d="M116 94L116 97C116.696 95.4463 116.696 95.5537 116 94z"/>
<path style="fill:#727173; stroke:none;" d="M123 94L124 95L123 94z"/>
<path style="fill:#9599a3; stroke:none;" d="M129 94L130 95L129 94z"/>
<path style="fill:#c9c9c7; stroke:none;" d="M152 94L153 95L152 94z"/>
<path style="fill:#988a79; stroke:none;" d="M172 94L173 95L172 94z"/>
<path style="fill:#232f3f; stroke:none;" d="M16 96C16 99.7965 17.5559 108.067 14.0077 110.589C10.5264 113.063 2.68281 108.797 0.563272 113.459C-0.773619 116.4 0 120.848 0 124L0 148C0 150.98 -1.07277 156.853 1.6034 158.972C4.70761 161.431 12.2315 160 16 160L16 144C23.463 144 38.0524 147.34 40 138L48 138C46.6337 135.289 45.9691 134.514 43 134L41 126C43.95 126.679 45.0201 127.68 47 130C51.8372 130.342 62.3318 131.112 64 126C57.6866 124.593 52.5178 124.006 46 124L46 121C49.9674 119.975 52.8728 118.579 55 115C51.1286 114.208 49.1833 113.088 49 109C46.9101 105.594 47.3208 101.575 49 98C40.4617 92.7444 25.7142 96 16 96z"/>
<path style="fill:#8a949e; stroke:none;" d="M50 95L51 96L50 95z"/>
<path style="fill:#000109; stroke:none;" d="M91 95L91 98C91.6961 96.4463 91.6961 96.5537 91 95z"/>
<path style="fill:#8b939e; stroke:none;" d="M99 95L100 96L99 95z"/>
<path style="fill:#000000; stroke:none;" d="M111 95L111 98C111.696 96.4463 111.696 96.5537 111 95z"/>
<path style="fill:#c3c4c6; stroke:none;" d="M123 95L124 96L123 95z"/>
<path style="fill:#000000; stroke:none;" d="M124 95L124 98C124.696 96.4463 124.696 96.5537 124 95z"/>
<path style="fill:#8c8c8a; stroke:none;" d="M136 95L137 96L136 95z"/>
<path style="fill:#c7c6c2; stroke:none;" d="M154 95L155 96L154 95z"/>
<path style="fill:#b1a69a; stroke:none;" d="M173 95L174 96L173 95z"/>
<path style="fill:#a2a6ab; stroke:none;" d="M61 96L62 97L61 96z"/>
<path style="fill:#5f666d; stroke:none;" d="M62 96L63 97L62 96z"/>
<path style="fill:#232e45; stroke:none;" d="M56 105C62.7264 110.218 65.9126 108.088 73 105C72.4012 98.023 64.7694 92.5583 58.5988 98.7184C57.0261 100.288 56.9828 103.078 56 105z"/>
<path style="fill:#56636d; stroke:none;" d="M68 96L69 97L68 96z"/>
<path style="fill:#87929b; stroke:none;" d="M69 96L70 97L69 96z"/>
<path style="fill:#ced7dd; stroke:none;" d="M70.6667 96.3333C70.2222 96.7778 71.2778 96.7222 71.3333 96.6667C71.7778 96.2222 70.7222 96.2778 70.6667 96.3333z"/>
<path style="fill:#c9ced4; stroke:none;" d="M92 96L93 97L92 96z"/>
<path style="fill:#00010d; stroke:none;" d="M103 96L103 100C103.71 98.2405 103.71 97.7595 103 96z"/>
<path style="fill:#666975; stroke:none;" d="M104 96L105 97L104 96z"/>
<path style="fill:#b4b9bd; stroke:none;" d="M117 96L118 97L117 96z"/>
<path style="fill:#17120e; stroke:none;" d="M154.667 96.3333C154.222 96.7778 155.278 96.7222 155.333 96.6667C155.778 96.2222 154.722 96.2778 154.667 96.3333z"/>
<path style="fill:#635d5a; stroke:none;" d="M156 96L157 97L156 96z"/>
<path style="fill:#d1ccc8; stroke:none;" d="M157 96L158 97L157 96z"/>
<path style="fill:#b4b1a8; stroke:none;" d="M174 96L175 97L174 96z"/>
<path style="fill:#7c5124; stroke:none;" d="M196 116L192 116C191.799 122.933 188.16 128.561 186 135C189.28 132.314 191.016 129.116 192 125C197.82 124.354 202.091 120.166 208 119C209.398 110.251 216.751 106.134 225 105L225 96C215.561 96.8303 208.821 102.654 202.255 108.905C199.667 111.368 197.121 112.518 196 116z"/>
<path style="fill:#000409; stroke:none;" d="M60 97C61.2483 97.6848 61.5484 97.7488 63 98C61.7517 97.3152 61.4516 97.2512 60 97z"/>
<path style="fill:#000000; stroke:none;" d="M69 97C70.3766 97.9114 71.4399 98.4038 73 99C71.686 97.3821 71.1227 97.3067 69 97z"/>
<path style="fill:#4a5255; stroke:none;" d="M73 97L73 101C73.7102 99.2405 73.7102 98.7595 73 97z"/>
<path style="fill:#687078; stroke:none;" d="M92 97L93 98L92 97z"/>
<path style="fill:#a1a5ae; stroke:none;" d="M104 97L105 98L104 97z"/>
<path style="fill:#bdc6c5; stroke:none;" d="M110 97L111 98L110 97z"/>
<path style="fill:#666b72; stroke:none;" d="M117 97L118 98L117 97z"/>
<path style="fill:#000000; stroke:none;" d="M92 98L92 101C92.6961 99.4463 92.6961 99.5537 92 98z"/>
<path style="fill:#5f6867; stroke:none;" d="M110 98L111 99L110 98z"/>
<path style="fill:#000000; stroke:none;" d="M117 98L117 101C117.696 99.4463 117.696 99.5537 117 98M127 98L127 101C127.696 99.4463 127.696 99.5537 127 98z"/>
<path style="fill:#a9a9aa; stroke:none;" d="M128 98L129 99L128 98z"/>
<path style="fill:#a2a19f; stroke:none;" d="M135 98L136 99L135 98z"/>
<path style="fill:#030000; stroke:none;" d="M160.667 98.3333C160.222 98.7777 161.278 98.7223 161.333 98.6667C161.778 98.2222 160.722 98.2778 160.667 98.3333z"/>
<path style="fill:#352a24; stroke:none;" d="M162 98C162.98 99.7833 162.908 99.5943 165 100C163.861 98.9846 163.388 98.6913 162 98z"/>
<path style="fill:#bdb6ad; stroke:none;" d="M163 98L164 99L163 98z"/>
<path style="fill:#d3cec2; stroke:none;" d="M175 98L176 99L175 98z"/>
<path style="fill:#000001; stroke:none;" d="M47 99L47 102C47.6961 100.446 47.6961 100.554 47 99z"/>
<path style="fill:#9da0ae; stroke:none;" d="M100 99L101 100L100 99z"/>
<path style="fill:#000000; stroke:none;" d="M101 99L102 105C102.889 102.492 102.495 101.185 101 99M110 99L110 102C110.696 100.446 110.696 100.554 110 99z"/>
<path style="fill:#acadac; stroke:none;" d="M124 99L125 100L124 99z"/>
<path style="fill:#000000; stroke:none;" d="M125 99L126 105C126.736 102.567 126.305 101.181 125 99z"/>
<path style="fill:#686253; stroke:none;" d="M165 99L166 100L165 99z"/>
<path style="fill:#93969b; stroke:none;" d="M56 100L57 101L56 100z"/>
<path style="fill:#8d9299; stroke:none;" d="M93 100L94 101L93 100z"/>
<path style="fill:#c5cace; stroke:none;" d="M118 100L119 101L118 100z"/>
<path style="fill:#0d0c0a; stroke:none;" d="M135.333 100.667C135.278 100.722 135.222 101.778 135.667 101.333C135.722 101.278 135.778 100.222 135.333 100.667z"/>
<path style="fill:#54422b; stroke:none;" d="M161 100L160 107L168 108L167 105L169 105C167.123 101.422 164.968 100.443 161 100z"/>
<path style="fill:#23190d; stroke:none;" d="M165.667 100.333C165.222 100.778 166.278 100.722 166.333 100.667C166.778 100.222 165.722 100.278 165.667 100.333z"/>
<path style="fill:#d4cac1; stroke:none;" d="M167 100L168 101L167 100z"/>
<path style="fill:#94826f; stroke:none;" d="M176 100L177 101L176 100z"/>
<path style="fill:#000000; stroke:none;" d="M56 101L56 105C56.7102 103.241 56.7102 102.759 56 101z"/>
<path style="fill:#aaaeb7; stroke:none;" d="M73.3333 101.667C73.2778 101.722 73.2222 102.778 73.6667 102.333C73.7222 102.278 73.7778 101.222 73.3333 101.667z"/>
<path style="fill:#a2a5ae; stroke:none;" d="M103 101L104 102L103 101z"/>
<path style="fill:#c5cdcf; stroke:none;" d="M109 101L110 102L109 101z"/>
<path style="fill:#71767a; stroke:none;" d="M118 101L119 102L118 101z"/>
<path style="fill:#b9b8b5; stroke:none;" d="M134 101L135 102L134 101z"/>
<path style="fill:#0a0000; stroke:none;" d="M167 101L168 102L167 101z"/>
<path style="fill:#e6d4bf; stroke:none;" d="M176 101L176 106C176.83 103.969 176.83 103.03 176 101z"/>
<path style="fill:#000000; stroke:none;" d="M72.3333 102.667C72.2778 102.722 72.2223 103.778 72.6667 103.333C72.7222 103.278 72.7778 102.222 72.3333 102.667M93.3333 102.667C93.2778 102.722 93.2222 103.778 93.6667 103.333C93.7222 103.278 93.7778 102.222 93.3333 102.667z"/>
<path style="fill:#484a57; stroke:none;" d="M101 102L102 103L101 102z"/>
<path style="fill:#676f72; stroke:none;" d="M109 102L110 103L109 102z"/>
<path style="fill:#4e504f; stroke:none;" d="M125 102L126 103L125 102z"/>
<path style="fill:#b6b9b5; stroke:none;" d="M127 102L128 103L127 102z"/>
<path style="fill:#252422; stroke:none;" d="M134 102L134 106C135.081 104.542 135.436 103.752 136 102L134 102z"/>
<path style="fill:#887e77; stroke:none;" d="M168 102L169 103L168 102z"/>
<path style="fill:#311900; stroke:none;" d="M177 102L177 105C177.696 103.446 177.696 103.554 177 102z"/>
<path style="fill:#47505b; stroke:none;" d="M47.3333 103.667C47.2778 103.722 47.2222 104.778 47.6667 104.333C47.7223 104.278 47.7778 103.222 47.3333 103.667z"/>
<path style="fill:#e7e4e5; stroke:none;" d="M49.3333 103.667C49.2778 103.722 49.2222 104.778 49.6667 104.333C49.7222 104.278 49.7778 103.222 49.3333 103.667z"/>
<path style="fill:#111822; stroke:none;" d="M57.3333 103.667C57.2778 103.722 57.2222 104.778 57.6667 104.333C57.7222 104.278 57.7778 103.222 57.3333 103.667z"/>
<path style="fill:#c4cbd7; stroke:none;" d="M94 103L95 104L94 103z"/>
<path style="fill:#acafb9; stroke:none;" d="M101 103L102 104L101 103z"/>
<path style="fill:#090e12; stroke:none;" d="M118 103L118 106C118.696 104.446 118.696 104.554 118 103z"/>
<path style="fill:#999b9a; stroke:none;" d="M125 103L126 104L125 103z"/>
<path style="fill:#040d1a; stroke:none;" d="M93 104L94 108C94.553 105.992 94.303 105.668 93 104z"/>
<path style="fill:#3f4852; stroke:none;" d="M94 104L95 105L94 104z"/>
<path style="fill:#00020d; stroke:none;" d="M109 104L109 107C109.696 105.446 109.696 105.554 109 104z"/>
<path style="fill:#b5b5b5; stroke:none;" d="M133 104L134 105L133 104z"/>
<path style="fill:#000000; stroke:none;" d="M71 105L72 106L71 105z"/>
<path style="fill:#656870; stroke:none;" d="M102 105L103 106L102 105z"/>
<path style="fill:#8a8f94; stroke:none;" d="M119 105L120 106L119 105z"/>
<path style="fill:#2e302d; stroke:none;" d="M126 105L127 106L126 105z"/>
<path style="fill:#616161; stroke:none;" d="M133 105L134 106L133 105z"/>
<path style="fill:#2e2516; stroke:none;" d="M167.333 105.667C167.278 105.722 167.222 106.778 167.667 106.333C167.722 106.278 167.778 105.222 167.333 105.667z"/>
<path style="fill:#6d635a; stroke:none;" d="M168 105L169 106L168 105z"/>
<path style="fill:#875a1f; stroke:none;" d="M208 119C201.794 119.808 197.851 123.844 192 125L193 134C195.198 134.065 196.883 134.381 199 135C200.899 129.941 202.437 128.181 208 128C210.192 122.033 218.983 118.767 225 118L225 105C216.448 105.704 208.842 109.815 208 119z"/>
<path style="fill:#000000; stroke:none;" d="M47 106L47 109C47.6961 107.446 47.6961 107.554 47 106z"/>
<path style="fill:#8a8d95; stroke:none;" d="M56 106L57 107L56 106z"/>
<path style="fill:#08111b; stroke:none;" d="M57 106C58.7634 109.024 60.5582 109.615 64 110C61.7799 108.276 59.6059 107.05 57 106z"/>
<path style="fill:#0b111e; stroke:none;" d="M66 108C68.1403 108.41 68.9625 107.968 71 107C68.8597 106.59 68.0375 107.032 66 108z"/>
<path style="fill:#b6bac6; stroke:none;" d="M71 106L72 107L71 106z"/>
<path style="fill:#c9d3da; stroke:none;" d="M95 106L96 107L95 106z"/>
<path style="fill:#8d949b; stroke:none;" d="M108 106L109 107L108 106z"/>
<path style="fill:#aeb0ad; stroke:none;" d="M126 106L127 107L126 106z"/>
<path style="fill:#020202; stroke:none;" d="M133.333 106.667C133.278 106.722 133.222 107.778 133.667 107.333C133.722 107.278 133.778 106.222 133.333 106.667z"/>
<path style="fill:#271e17; stroke:none;" d="M145 106C146.506 106.683 147.315 106.826 149 107C147.494 106.317 146.685 106.174 145 106z"/>
<path style="fill:#ddd2c9; stroke:none;" d="M168 106L169 107L168 106z"/>
<path style="fill:#85725a; stroke:none;" d="M176 106L177 107L176 106z"/>
<path style="fill:#c2c6d2; stroke:none;" d="M70 107L71 108L70 107z"/>
<path style="fill:#454a50; stroke:none;" d="M82 107L83 108L82 107z"/>
<path style="fill:#000002; stroke:none;" d="M83.3333 107.667C83.2778 107.722 83.2222 108.778 83.6667 108.333C83.7222 108.278 83.7778 107.222 83.3333 107.667z"/>
<path style="fill:#656e76; stroke:none;" d="M95 107L96 108L95 107z"/>
<path style="fill:#1b2130; stroke:none;" d="M108.667 107.333C108.222 107.778 109.278 107.722 109.333 107.667C109.778 107.222 108.722 107.278 108.667 107.333z"/>
<path style="fill:#000000; stroke:none;" d="M119 107L119 110C119.696 108.446 119.696 108.554 119 107z"/>
<path style="fill:#a39b96; stroke:none;" d="M148 107L149 108L148 107z"/>
<path style="fill:#0e0500; stroke:none;" d="M149.667 107.333C149.222 107.778 150.278 107.722 150.333 107.667C150.778 107.222 149.722 107.278 149.667 107.333z"/>
<path style="fill:#312d18; stroke:none;" d="M165 107L164 109L166 109C166 107.147 166.3 107.65 165 107z"/>
<path style="fill:#b4bcbf; stroke:none;" d="M48 108L49 109L48 108z"/>
<path style="fill:#62666f; stroke:none;" d="M68 108L69 109L68 108z"/>
<path style="fill:#c3c8cf; stroke:none;" d="M82 108L83 109L82 108z"/>
<path style="fill:#000000; stroke:none;" d="M95 108L95 111C95.6961 109.446 95.6961 109.554 95 108M108 108L108 111C108.696 109.446 108.696 109.554 108 108z"/>
<path style="fill:#767676; stroke:none;" d="M132 108L133 109L132 108z"/>
<path style="fill:#aca595; stroke:none;" d="M166 108L167 109L166 108z"/>
<path style="fill:#bcb8a5; stroke:none;" d="M175 108L176 109L175 108z"/>
<path style="fill:#a6adb3; stroke:none;" d="M59 109L60 110L59 109z"/>
<path style="fill:#757a80; stroke:none;" d="M65 109L66 110L65 109z"/>
<path style="fill:#b4b8c2; stroke:none;" d="M66 109L67 110L66 109z"/>
<path style="fill:#979b9e; stroke:none;" d="M120 109L121 110L120 109z"/>
<path style="fill:#b6aca7; stroke:none;" d="M154 109L155 110L154 109z"/>
<path style="fill:#7e746d; stroke:none;" d="M155 109L156 110L155 109z"/>
<path style="fill:#1f130d; stroke:none;" d="M157 109C158.769 109.779 160.036 109.912 162 110C160.231 109.221 158.964 109.088 157 109z"/>
<path style="fill:#857f71; stroke:none;" d="M163 109L164 110L163 109z"/>
<path style="fill:#d7d0c0; stroke:none;" d="M164 109L165 110L164 109z"/>
<path style="fill:#121f27; stroke:none;" d="M48 110C48.9484 113.05 50.0029 113.912 53 115C51.4685 113.049 49.9513 111.532 48 110z"/>
<path style="fill:#bac4c5; stroke:none;" d="M49 110L50 111L49 110z"/>
<path style="fill:#b1b5b6; stroke:none;" d="M73 110L74 111L73 110z"/>
<path style="fill:#7a7e7f; stroke:none;" d="M74 110L75 111L74 110z"/>
<path style="fill:#aab1ba; stroke:none;" d="M83 110L84 111L83 110z"/>
<path style="fill:#000004; stroke:none;" d="M84 110L84 113C84.6961 111.446 84.6961 111.554 84 110z"/>
<path style="fill:#909494; stroke:none;" d="M96 110L97 111L96 110z"/>
<path style="fill:#8e9395; stroke:none;" d="M107 110L108 111L107 110z"/>
<path style="fill:#1a1a1b; stroke:none;" d="M132.333 110.667C132.278 110.722 132.222 111.778 132.667 111.333C132.722 111.278 132.778 110.222 132.333 110.667z"/>
<path style="fill:#96998b; stroke:none;" d="M174 110L175 111L174 110z"/>
<path style="fill:#c0c5c8; stroke:none;" d="M72 111L73 112L72 111z"/>
<path style="fill:#000000; stroke:none;" d="M73.6667 111.333C73.2222 111.778 74.2778 111.722 74.3333 111.667C74.7778 111.222 73.7222 111.278 73.6667 111.333z"/>
<path style="fill:#000207; stroke:none;" d="M120.333 111.667C120.278 111.722 120.222 112.778 120.667 112.333C120.722 112.278 120.778 111.222 120.333 111.667z"/>
<path style="fill:#a1a1a2; stroke:none;" d="M131 111L132 112L131 111z"/>
<path style="fill:#beb8ac; stroke:none;" d="M173 111L174 112L173 111z"/>
<path style="fill:#372813; stroke:none;" d="M174.333 111.667C174.278 111.722 174.222 112.778 174.667 112.333C174.722 112.278 174.778 111.222 174.333 111.667z"/>
<path style="fill:#4a535d; stroke:none;" d="M50 112L51 113L50 112z"/>
<path style="fill:#b1bcbe; stroke:none;" d="M71 112L72 113L71 112z"/>
<path style="fill:#233043; stroke:none;" d="M72 115C66.766 115.883 61.0761 115.62 56 116.862C52.4909 117.72 49.3619 119.721 46 121L46 124C52.4466 124.901 59.9798 122.251 64 129C68.1559 128.95 71.7974 130.943 76 130.97C81.4028 131.004 87.541 130.516 92.9105 129.871C95.4647 129.565 98.1107 127.828 100.674 128.91C102.829 129.821 103.891 132.11 105 134C106.635 133.455 106.455 133.635 107 132C113.566 136.521 121.838 127.654 116.258 121.564C113.129 118.15 106.973 119.2 103 120C104.186 118.814 104.584 118.472 106 118C104.009 117.198 102.153 117.171 100 117L99 120C92.4973 119.559 87.0569 121.256 83 115C80.3082 115.324 79.4412 115.235 79 118C77.6451 115.616 72.7367 109.262 72 115z"/>
<path style="fill:#5a6567; stroke:none;" d="M75 112L76 113L75 112z"/>
<path style="fill:#a0a9b9; stroke:none;" d="M83 112L84 113L83 112z"/>
<path style="fill:#060f17; stroke:none;" d="M96.3333 112.667C96.2778 112.722 96.2222 113.778 96.6667 113.333C96.7222 113.278 96.7778 112.222 96.3333 112.667z"/>
<path style="fill:#000006; stroke:none;" d="M107.333 112.667C107.278 112.722 107.222 113.778 107.667 113.333C107.722 113.278 107.778 112.222 107.333 112.667z"/>
<path style="fill:#0c0c0b; stroke:none;" d="M131.333 112.667C131.278 112.722 131.222 113.778 131.667 113.333C131.722 113.278 131.778 112.222 131.333 112.667z"/>
<path style="fill:#2e2923; stroke:none;" d="M145 112C146.382 114.42 147.363 115.061 150 116C148.41 114.248 147.046 113.206 145 112z"/>
<path style="fill:#b6a897; stroke:none;" d="M172 112L173 113L172 112z"/>
<path style="fill:#667178; stroke:none;" d="M70 113L71 114L70 113z"/>
<path style="fill:#b1bdc3; stroke:none;" d="M76 113L77 114L76 113z"/>
<path style="fill:#5a6678; stroke:none;" d="M82 113L83 114L82 113z"/>
<path style="fill:#000000; stroke:none;" d="M83 113L84 114L83 113z"/>
<path style="fill:#a2abb2; stroke:none;" d="M97 113L98 114L97 113z"/>
<path style="fill:#c0c9d1; stroke:none;" d="M106 113L107 114L106 113z"/>
<path style="fill:#8d9196; stroke:none;" d="M121 113L122 114L121 113z"/>
<path style="fill:#d6d3ce; stroke:none;" d="M147 113L148 114L147 113z"/>
<path style="fill:#83715d; stroke:none;" d="M171 113L172 114L171 113z"/>
<path style="fill:#b0b9c3; stroke:none;" d="M53 114L54 115L53 114z"/>
<path style="fill:#939da7; stroke:none;" d="M68 114L69 115L68 114z"/>
<path style="fill:#00010a; stroke:none;" d="M69.6667 114.333C69.2222 114.778 70.2778 114.722 70.3333 114.667C70.7778 114.222 69.7222 114.278 69.6667 114.333z"/>
<path style="fill:#495459; stroke:none;" d="M71 114L72 115L71 114z"/>
<path style="fill:#bcc8d8; stroke:none;" d="M80 114L81 115L80 114z"/>
<path style="fill:#091526; stroke:none;" d="M81.6667 114.333C81.2222 114.778 82.2778 114.722 82.3333 114.667C82.7778 114.222 81.7222 114.278 81.6667 114.333z"/>
<path style="fill:#636c75; stroke:none;" d="M106 114L107 115L106 114z"/>
<path style="fill:#838381; stroke:none;" d="M130 114L131 115L130 114z"/>
<path style="fill:#cdc8c2; stroke:none;" d="M149 114L150 115L149 114z"/>
<path style="fill:#8d7d6d; stroke:none;" d="M169 114L170 115L169 114z"/>
<path style="fill:#b1bac4; stroke:none;" d="M55 115L56 116L55 115z"/>
<path style="fill:#b7c1cc; stroke:none;" d="M65 115L66 116L65 115z"/>
<path style="fill:#5f6974; stroke:none;" d="M66 115L67 116L66 115z"/>
<path style="fill:#000000; stroke:none;" d="M67.6667 115.333C67.2222 115.778 68.2778 115.722 68.3333 115.667C68.7778 115.222 67.7222 115.278 67.6667 115.333z"/>
<path style="fill:#79838d; stroke:none;" d="M78 115L79 116L78 115z"/>
<path style="fill:#000210; stroke:none;" d="M80 115L81 116L80 115z"/>
<path style="fill:#443f3c; stroke:none;" d="M146 115C143.418 117.368 142.127 117.629 139 116C134.786 121.859 136.289 124.755 139.876 130.205C141.052 131.992 141.697 134.499 143.549 135.74C146.72 137.864 153.391 137.494 157 137C157.217 133.015 156.97 130.86 154 128C156.541 125.003 157.341 121.841 158 118L163 118C157.991 115.771 151.442 116.24 146 115z"/>
<path style="fill:#000000; stroke:none;" d="M150 115L151 116L150 115z"/>
<path style="fill:#5d5953; stroke:none;" d="M151 115L152 116L151 115z"/>
<path style="fill:#dcd7d1; stroke:none;" d="M152.667 115.333C152.222 115.778 153.278 115.722 153.333 115.667C153.778 115.222 152.722 115.278 152.667 115.333z"/>
<path style="fill:#c3b3a6; stroke:none;" d="M166 115L167 116L166 115z"/>
<path style="fill:#897c6c; stroke:none;" d="M167 115L168 116L167 115z"/>
<path style="fill:#000000; stroke:none;" d="M55 116C56.2483 116.685 56.5484 116.749 58 117C56.7517 116.315 56.4516 116.251 55 116z"/>
<path style="fill:#000c17; stroke:none;" d="M62 116C63.7691 116.779 65.0359 116.912 67 117C65.231 116.221 63.9641 116.088 62 116z"/>
<path style="fill:#061222; stroke:none;" d="M78.3333 116.667C78.2778 116.722 78.2222 117.778 78.6667 117.333C78.7222 117.278 78.7778 116.222 78.3333 116.667z"/>
<path style="fill:#323a45; stroke:none;" d="M121 116C121 117.797 121.014 117.521 122 119L116 120C118.839 127.791 117.577 135.684 128 136C128 129.901 128.885 123.545 126 118C124.203 118 124.479 118.014 123 119C122.316 117.42 122.195 117.223 121 116z"/>
<path style="fill:#140d05; stroke:none;" d="M151 116C152.769 116.779 154.036 116.912 156 117C154.231 116.221 152.964 116.088 151 116z"/>
<path style="fill:#a0978e; stroke:none;" d="M157 116C159.052 116.874 160.747 116.953 163 117C160.948 116.126 159.253 116.047 157 116z"/>
<path style="fill:#221505; stroke:none;" d="M164 116C165.248 116.685 165.548 116.749 167 117C165.752 116.315 165.452 116.251 164 116z"/>
<path style="fill:#475464; stroke:none;" d="M85 117L86 118L85 117z"/>
<path style="fill:#9b671e; stroke:none;" d="M208 128C206.756 128.015 205.249 127.871 204.014 128.148C197.349 129.643 201.993 138.178 201 143C204.437 144.016 210.334 145.189 213.566 142.972C216.348 141.065 219.514 132.341 220 129C225.957 128.006 224.999 123.023 225 118C218.972 118.4 209.396 121.595 208 128z"/>
<path style="fill:#362508; stroke:none;" d="M176.667 124.333C176.222 124.778 177.278 124.722 177.333 124.667C177.778 124.222 176.722 124.278 176.667 124.333z"/>
<path style="fill:#152232; stroke:none;" d="M41 126C42.6932 127.062 44.0404 127.52 46 128C44.1074 126.089 43.6671 125.862 41 126z"/>
<path style="fill:#2e2212; stroke:none;" d="M162.667 125.333C162.222 125.778 163.278 125.722 163.333 125.667C163.778 125.222 162.722 125.278 162.667 125.333z"/>
<path style="fill:#8e8171; stroke:none;" d="M165 125L166 126L165 125z"/>
<path style="fill:#fffffe; stroke:none;" d="M156 131C161.112 130.895 172.982 127.287 175.306 134.133C176.968 139.027 172.444 145.947 172 151C177.336 147.061 185.999 134.555 180.972 127.514C179.252 125.105 175.651 125.073 173 125.015C166.685 124.879 160.272 126.108 156 131z"/>
<path style="fill:#d6c7ad; stroke:none;" d="M178 125L179 126L178 125z"/>
<path style="fill:#9d8c72; stroke:none;" d="M179 125L180 126L179 125z"/>
<path style="fill:#3b3128; stroke:none;" d="M157 126C155.802 127.245 155.866 127.074 154 127C156.413 128.662 157.392 128.444 159 126L157 126z"/>
<path style="fill:#1f1605; stroke:none;" d="M160 126L161 127L160 126z"/>
<path style="fill:#c7bdae; stroke:none;" d="M162 126L163 127L162 126z"/>
<path style="fill:#d1bfa0; stroke:none;" d="M181 126L182 127L181 126z"/>
<path style="fill:#636b7b; stroke:none;" d="M42.6667 127.333C42.2222 127.778 43.2778 127.722 43.3333 127.667C43.7778 127.222 42.7222 127.278 42.6667 127.333z"/>
<path style="fill:#404447; stroke:none;" d="M128 128L128 136L124 136C123.965 139.192 123.942 141.44 122 144C128.164 147.639 138.025 142.651 145 143C147.432 141.372 150.162 140.797 153 140L152 136C149.549 136.276 146.114 136.986 143.875 135.571C140.226 133.265 140.567 128.775 136 127L136 131C135.326 130.191 133.776 127.291 133 127C130.471 126.052 130.281 127.719 129 129L128 128z"/>
<path style="fill:#7d705f; stroke:none;" d="M159 127L160 128L159 127z"/>
<path style="fill:#b2a084; stroke:none;" d="M182 127L183 128L182 127z"/>
<path style="fill:#ffffff; stroke:none;" d="M42 128C45.5811 135.344 55.0466 140.267 62 144.138C85.0661 156.978 114.633 159.609 140 152.845C147.368 150.88 154.296 147.893 161 144.293C164.942 142.177 168.569 140.408 170 136C166.83 136.173 164.864 136.356 163 139C157.043 138.119 150.809 141.391 145 142.765C134.347 145.287 121.98 147.645 111 146.91C94.8024 145.827 79.2881 142.859 64 137.305C56.6288 134.627 49.668 129.384 42 128z"/>
<path style="fill:#49515a; stroke:none;" d="M45 128L46 129L45 128z"/>
<path style="fill:#243851; stroke:none;" d="M77 142C84.3976 141.693 91.6206 144.701 99 145.33C104.188 145.773 109.764 145.027 115 144.999C116.897 144.989 119.019 145.16 120.852 144.566C128.971 141.936 120.194 132.636 117 130C113.507 132.778 111.15 134.176 107 132L105 134C101.968 126.583 98.3555 129.12 91.9606 129.871C86.9327 130.461 81.0484 131.001 76 130.917C72.4473 130.857 69.4818 128.764 66.0039 128.63C63.6797 128.541 52.99 127.447 55.4074 132.506C56.2886 134.35 59.0202 134.91 60.7184 135.655C66.0096 137.977 72.6175 138.172 77 142z"/>
<path style="fill:#e0cebd; stroke:none;" d="M182 128L182 132C182.71 130.241 182.71 129.759 182 128z"/>
<path style="fill:#503a1c; stroke:none;" d="M183 128L183 132C183.71 130.241 183.71 129.759 183 128z"/>
<path style="fill:#795d35; stroke:none;" d="M184 128C182.691 136.093 182.001 143.768 182 152C184.741 152.931 186.104 153.819 188 156C196.758 152.479 189.361 142.467 187.289 136.83C186.153 133.737 185.896 130.728 184 128z"/>
<path style="fill:#846127; stroke:none;" d="M190 128C189.348 130.625 187.697 133.228 187.427 135.91C186.535 144.809 196.133 144 202 144C202.203 139.947 202.136 137.533 200 134C197.561 133.942 195.411 133.627 193 134C192.682 131.123 192.38 129.666 190 128z"/>
<path style="fill:#a66f1d; stroke:none;" d="M224 128L220 129C219.096 132.524 215.877 141.076 212.772 142.972C209.847 144.758 205.283 144 202 144C202.424 150.302 207.424 153.67 208 160C211.532 159.419 212.615 158.272 214 155L211 152C213.297 152.674 213.774 152.965 215 155C216.195 154.402 215.977 154.534 217 153C217.899 155.124 217.876 155.101 220 156L219 152L225 152C225 144.767 226.806 134.687 224 128z"/>
<path style="fill:#161e2b; stroke:none;" d="M41 129C41.6169 131.303 42.2565 132.372 44 134C43.602 131.326 43.11 130.763 41 129z"/>
<path style="fill:#0a1c2f; stroke:none;" d="M48 129C49.2228 130.195 49.42 130.316 51 131C49.7772 129.805 49.58 129.684 48 129z"/>
<path style="fill:#9c908b; stroke:none;" d="M156 129L157 130L156 129z"/>
<path style="fill:#d4cdc1; stroke:none;" d="M162 130C163.248 130.685 163.548 130.749 165 131C163.752 130.315 163.452 130.251 162 130z"/>
<path style="fill:#b4ad9a; stroke:none;" d="M165 130C167.332 130.985 169.457 130.981 172 131C169.668 130.015 167.543 130.019 165 130z"/>
<path style="fill:#b0bfc0; stroke:none;" d="M50 131L51 132L50 131z"/>
<path style="fill:#141e1f; stroke:none;" d="M51 131C52.458 132.081 53.248 132.436 55 133C53.457 131.733 52.9522 131.511 51 131z"/>
<path style="fill:#837a6d; stroke:none;" d="M157 131L158 132L157 131z"/>
<path style="fill:#605237; stroke:none;" d="M158 131C157.405 133.132 157.036 134.808 157 137L153 138C153.598 139.195 153.466 138.977 155 140C160.396 136.921 169.488 132.574 169 142L174 140C173.648 136.931 174.495 134.558 171 134L173 133C168.53 131.124 162.841 131.899 158 131z"/>
<path style="fill:#292011; stroke:none;" d="M160 131C161.506 131.683 162.315 131.826 164 132C162.494 131.317 161.685 131.174 160 131z"/>
<path style="fill:#453a28; stroke:none;" d="M164 131C167.366 132.416 171.373 132.327 175 133C171.734 130.526 167.99 131 164 131z"/>
<path style="fill:#847263; stroke:none;" d="M174 131L175 132L174 131z"/>
<path style="fill:#b1bbbb; stroke:none;" d="M52 132L53 133L52 132z"/>
<path style="fill:#624e24; stroke:none;" d="M175 132L171 133C172.248 133.685 172.548 133.749 174 134C173.534 136.319 173.534 137.681 174 140C175.433 137.304 176.038 134.898 175 132z"/>
<path style="fill:#7e6d53; stroke:none;" d="M182.333 132.667C182.278 132.722 182.222 133.778 182.667 133.333C182.722 133.278 182.778 132.222 182.333 132.667z"/>
<path style="fill:#000000; stroke:none;" d="M45 133C45.5451 134.635 45.3648 134.455 47 135C46.455 133.365 46.6352 133.545 45 133z"/>
<path style="fill:#9da5b3; stroke:none;" d="M46 133L47 134L46 133z"/>
<path style="fill:#b9c2c7; stroke:none;" d="M54 133L55 134L54 133z"/>
<path style="fill:#78818b; stroke:none;" d="M47 134L48 135L47 134z"/>
<path style="fill:#404859; stroke:none;" d="M57 134L58 135L57 134z"/>
<path style="fill:#00040e; stroke:none;" d="M47 135L48 136L47 135z"/>
<path style="fill:#191a27; stroke:none;" d="M48 135C48.5107 136.952 48.7333 137.457 50 139L51 138C49.8966 136.543 49.4566 136.103 48 135z"/>
<path style="fill:#717e8d; stroke:none;" d="M59 135L60 136L59 135z"/>
<path style="fill:#000213; stroke:none;" d="M60.6667 135.333C60.2222 135.778 61.2778 135.722 61.3333 135.667C61.7777 135.222 60.7223 135.278 60.6667 135.333z"/>
<path style="fill:#857269; stroke:none;" d="M166 135L167 136L166 135z"/>
<path style="fill:#d5c1b4; stroke:none;" d="M167.667 135.333C167.222 135.778 168.278 135.722 168.333 135.667C168.778 135.222 167.722 135.278 167.667 135.333z"/>
<path style="fill:#4e3b1b; stroke:none;" d="M182 135L182 138C182.696 136.446 182.696 136.554 182 135z"/>
<path style="fill:#cbcad3; stroke:none;" d="M50 136L51 137L50 136z"/>
<path style="fill:#adbbc3; stroke:none;" d="M61 136L62 137L61 136z"/>
<path style="fill:#373222; stroke:none;" d="M162.667 136.333C162.222 136.778 163.278 136.722 163.333 136.667C163.778 136.222 162.722 136.278 162.667 136.333z"/>
<path style="fill:#bbb3a9; stroke:none;" d="M164 136L165 137L164 136z"/>
<path style="fill:#928862; stroke:none;" d="M175 136L176 137L175 136z"/>
<path style="fill:#d1c0a6; stroke:none;" d="M181 136L182 137L181 136z"/>
<path style="fill:#858797; stroke:none;" d="M51 137L52 138L51 137z"/>
<path style="fill:#737d87; stroke:none;" d="M64 137L65 138L64 137z"/>
<path style="fill:#7c7e6b; stroke:none;" d="M161 137L162 138L161 137z"/>
<path style="fill:#e4e6db; stroke:none;" d="M162.333 137.667C162.278 137.722 162.222 138.778 162.667 138.333C162.722 138.278 162.778 137.222 162.333 137.667z"/>
<path style="fill:#c2b895; stroke:none;" d="M175 137L176 138L175 137z"/>
<path style="fill:#8d7d5e; stroke:none;" d="M181 137L182 138L181 137z"/>
<path style="fill:#223146; stroke:none;" d="M40 138C36.8232 147.041 23.8646 144 16 144L16 160C10.6001 160 5.28204 160.258 0 159L0 177C5.99542 177.827 4 187.425 4 192L16 193C16 198.589 13.9889 206.83 21 208C19.7516 207.315 19.4516 207.251 18 207C18 197.753 19.3868 187.271 17.7407 178.17C16.8959 173.499 13.9936 166.865 17.0278 162.318C18.9187 159.484 23.054 160.006 26 160C31.0631 159.99 35.9737 159.977 40.9961 159.281C42.9442 159.011 45.4745 159.094 46.821 157.397C48.3541 155.464 47.9792 152.298 48 150C52.4385 150 56.6623 150.033 61 149C60.0143 150.479 60 150.203 60 152C64.2957 151.814 68.8558 152.138 73 151C68.6476 146.403 61.1136 144.601 55 144L57 143C51.6331 137.801 47.2681 138.004 40 138z"/>
<path style="fill:#626877; stroke:none;" d="M67 138L68 139L67 138z"/>
<path style="fill:#00000a; stroke:none;" d="M68.6667 138.333C68.2222 138.778 69.2778 138.722 69.3333 138.667C69.7778 138.222 68.7222 138.278 68.6667 138.333z"/>
<path style="fill:#232011; stroke:none;" d="M156.667 138.333C156.222 138.778 157.278 138.722 157.333 138.667C157.778 138.222 156.722 138.278 156.667 138.333z"/>
<path style="fill:#696657; stroke:none;" d="M158 138L159 139L158 138z"/>
<path style="fill:#c4c2b2; stroke:none;" d="M159 138L160 139L159 138z"/>
<path style="fill:#4c3d19; stroke:none;" d="M181.333 138.667C181.278 138.722 181.222 139.778 181.667 139.333C181.722 139.278 181.778 138.222 181.333 138.667z"/>
<path style="fill:#9ba3b1; stroke:none;" d="M54 139L55 140L54 139z"/>
<path style="fill:#616b74; stroke:none;" d="M70 139L71 140L70 139z"/>
<path style="fill:#00000c; stroke:none;" d="M71 139C72.2484 139.685 72.5484 139.749 74 140C72.7516 139.315 72.4516 139.251 71 139z"/>
<path style="fill:#262218; stroke:none;" d="M153.667 139.333C153.222 139.778 154.278 139.722 154.333 139.667C154.778 139.222 153.722 139.278 153.667 139.333z"/>
<path style="fill:#cac6bd; stroke:none;" d="M156 139L157 140L156 139z"/>
<path style="fill:#d7d0c5; stroke:none;" d="M168 139L169 140L168 139z"/>
<path style="fill:#d5c6a8; stroke:none;" d="M180 139L181 140L180 139z"/>
<path style="fill:#14212d; stroke:none;" d="M54 140C54.9802 141.783 54.9076 141.594 57 142C55.7772 140.805 55.58 140.684 54 140z"/>
<path style="fill:#7d868f; stroke:none;" d="M73 140L74 141L73 140z"/>
<path style="fill:#000000; stroke:none;" d="M74 140C75.2484 140.685 75.5484 140.749 77 141C75.7516 140.315 75.4516 140.251 74 140z"/>
<path style="fill:#1a1915; stroke:none;" d="M150.667 140.333C150.222 140.778 151.278 140.722 151.333 140.667C151.778 140.222 150.722 140.278 150.667 140.333z"/>
<path style="fill:#7f7e7a; stroke:none;" d="M152 140L153 141L152 140z"/>
<path style="fill:#c9c8c4; stroke:none;" d="M153 140L154 141L153 140z"/>
<path style="fill:#9c9a8b; stroke:none;" d="M167 140L168 141L167 140z"/>
<path style="fill:#3d3824; stroke:none;" d="M168 140L166 141C167.482 141.791 168.796 141.87 168 140z"/>
<path style="fill:#685848; stroke:none;" d="M165 142L166 147C166.683 145.494 166.826 144.685 167 143L172 145L173 140C170.305 140.845 167.806 141.657 165 142z"/>
<path style="fill:#483329; stroke:none;" d="M173 140L173 143C173.696 141.446 173.696 141.554 173 140z"/>
<path style="fill:#a79585; stroke:none;" d="M174 140L175 141L174 140z"/>
<path style="fill:#746141; stroke:none;" d="M180 140L181 143C175.471 146.119 177.008 151.979 173 156C174.267 160.115 178.543 165.572 183 163C185.009 165.671 185.347 161.751 185 160C189.481 156.574 186.553 152.95 182 152C182.003 147.991 183.472 142.528 180 140z"/>
<path style="fill:#848d94; stroke:none;" d="M57 141L58 142L57 141z"/>
<path style="fill:#a6b0ba; stroke:none;" d="M76 141L77 142L76 141z"/>
<path style="fill:#000000; stroke:none;" d="M78.6667 141.333C78.2222 141.778 79.2778 141.722 79.3333 141.667C79.7778 141.222 78.7222 141.278 78.6667 141.333z"/>
<path style="fill:#21211f; stroke:none;" d="M145 141C146.248 141.685 146.548 141.749 148 142C146.752 141.315 146.452 141.251 145 141z"/>
<path style="fill:#939391; stroke:none;" d="M149 141L150 142L149 141z"/>
<path style="fill:#e4cbc0; stroke:none;" d="M174 141L175 142L174 141z"/>
<path style="fill:#4d401c; stroke:none;" d="M180.333 141.667C180.278 141.722 180.222 142.778 180.667 142.333C180.722 142.278 180.778 141.222 180.333 141.667z"/>
<path style="fill:#1e2733; stroke:none;" d="M55 143C57.2748 144.447 59.3107 144.702 62 145C59.6206 142.827 58.191 142.577 55 143z"/>
<path style="fill:#b2b6c0; stroke:none;" d="M59 142L60 143L59 142z"/>
<path style="fill:#9bacc6; stroke:none;" d="M80 142L81 143L80 142z"/>
<path style="fill:#536584; stroke:none;" d="M81 142L82 143L81 142z"/>
<path style="fill:#00000a; stroke:none;" d="M82 142C83.2484 142.685 83.5484 142.749 85 143C83.7516 142.315 83.4516 142.251 82 142z"/>
<path style="fill:#191d1e; stroke:none;" d="M141 142C142.248 142.685 142.548 142.749 144 143C142.752 142.315 142.452 142.251 141 142z"/>
<path style="fill:#828481; stroke:none;" d="M145 142L146 143L145 142z"/>
<path style="fill:#cfd1ce; stroke:none;" d="M146 142L147 143L146 142z"/>
<path style="fill:#787566; stroke:none;" d="M164 142L165 143L164 142z"/>
<path style="fill:#93876f; stroke:none;" d="M179 142L180 143L179 142z"/>
<path style="fill:#c3cee9; stroke:none;" d="M84 143L85 144L84 143z"/>
<path style="fill:#77819d; stroke:none;" d="M85 143L86 144L85 143z"/>
<path style="fill:#000119; stroke:none;" d="M87 143C88.2484 143.685 88.5484 143.749 90 144C88.7516 143.315 88.4516 143.251 87 143z"/>
<path style="fill:#101518; stroke:none;" d="M136 143C137.248 143.685 137.548 143.749 139 144C137.752 143.315 137.452 143.251 136 143z"/>
<path style="fill:#656968; stroke:none;" d="M140 143L141 144L140 143z"/>
<path style="fill:#a8adac; stroke:none;" d="M141 143L142 144L141 143z"/>
<path style="fill:#c5c0ba; stroke:none;" d="M162 143L163 144L162 143z"/>
<path style="fill:#5d5437; stroke:none;" d="M163 143L160 148C161.797 148 161.522 147.986 163 147C164.174 152.479 168.233 147.83 171 146C170.438 147.801 170.176 149.122 170 151C171.895 148.452 173.56 145.447 171 143L172 145C170.277 144.066 168.894 143.465 167 143L167 147L165 143L163 143z"/>
<path style="fill:#968076; stroke:none;" d="M173 143L174 144L173 143z"/>
<path style="fill:#525f71; stroke:none;" d="M62 144L63 145L62 144z"/>
<path style="fill:#cacee3; stroke:none;" d="M89 144L90 145L89 144z"/>
<path style="fill:#9299ad; stroke:none;" d="M90 144L91 145L90 144z"/>
<path style="fill:#545c70; stroke:none;" d="M91 144L92 145L91 144z"/>
<path style="fill:#00000e; stroke:none;" d="M93 144C94.2484 144.685 94.5484 144.749 96 145C94.7517 144.315 94.4516 144.251 93 144z"/>
<path style="fill:#1b262f; stroke:none;" d="M128 144C129.248 144.685 129.548 144.749 131 145C129.752 144.315 129.452 144.251 128 144z"/>
<path style="fill:#030912; stroke:none;" d="M131 144C132.248 144.685 132.548 144.749 134 145C132.752 144.315 132.452 144.251 131 144z"/>
<path style="fill:#73787b; stroke:none;" d="M135 144L136 145L135 144z"/>
<path style="fill:#dadedd; stroke:none;" d="M136.667 144.333C136.222 144.778 137.278 144.722 137.333 144.667C137.778 144.222 136.722 144.278 136.667 144.333z"/>
<path style="fill:#dbd1cc; stroke:none;" d="M160 144L161 145L160 144z"/>
<path style="fill:#3d2d26; stroke:none;" d="M160 146C161.58 145.316 161.777 145.195 163 144C161.42 144.684 161.223 144.805 160 146z"/>
<path style="fill:#91682a; stroke:none;" d="M192 144C193.634 150.809 197.382 152.761 204 152C203.155 149.305 202.343 146.806 202 144L192 144z"/>
<path style="fill:#71808b; stroke:none;" d="M64 145L65 146L64 145z"/>
<path style="fill:#94a5ad; stroke:none;" d="M96 145C97.2484 145.685 97.5484 145.749 99 146C97.7517 145.315 97.4516 145.251 96 145z"/>
<path style="fill:#00000d; stroke:none;" d="M101 145C103.332 145.985 105.457 145.981 108 146C105.668 145.015 103.543 145.019 101 145z"/>
<path style="fill:#091523; stroke:none;" d="M108 145C112.974 147.087 119.638 146 125 146C120.026 143.913 113.362 145 108 145z"/>
<path style="fill:#9da6ae; stroke:none;" d="M128.667 145.333C128.222 145.778 129.278 145.722 129.333 145.667C129.778 145.222 128.722 145.278 128.667 145.333z"/>
<path style="fill:#d6d4c7; stroke:none;" d="M158 145L159 146L158 145z"/>
<path style="fill:#4a5050; stroke:none;" d="M148 152C144.564 150.855 146.074 151.683 143 153C142.625 153.161 142.623 150.886 142 154C140.313 153.782 139.684 153.776 138 154C140.271 155.68 141.242 155.657 144 155L144 160C147.801 160 151.343 160.081 155 159C157.231 161.652 160.643 161.732 164 162L164 157C162.203 157 162.479 157.014 161 158C159.6 152.796 160.888 151.328 163 147L160 148C161.277 146.085 161.277 146.915 160 145C156.393 146.74 150.508 149.052 148 152z"/>
<path style="fill:#d0b998; stroke:none;" d="M177 145L178 146L177 145z"/>
<path style="fill:#00020e; stroke:none;" d="M64.6667 146.333C64.2222 146.778 65.2778 146.722 65.3333 146.667C65.7778 146.222 64.7222 146.278 64.6667 146.333z"/>
<path style="fill:#697582; stroke:none;" d="M66 146L67 147L66 146z"/>
<path style="fill:#c2cee0; stroke:none;" d="M107.667 146.333C107.222 146.778 108.278 146.722 108.333 146.667C108.778 146.222 107.722 146.278 107.667 146.333z"/>
<path style="fill:#b9c3cd; stroke:none;" d="M109 146C112.432 147.44 116.3 147 120 147C116.568 145.56 112.7 146 109 146z"/>
<path style="fill:#5f594d; stroke:none;" d="M169 146C166.348 149.352 164.104 149.4 160 149C160.008 152.169 160.1 154.959 161 158L164 157L164 162L160 162C160 169.741 158.588 175.888 168 176C168.112 172.476 168.46 170.484 171 168C170.52 163.636 173.236 160.431 173 156C175.545 154.365 175.779 153.006 176 150L170 151L171 146L169 146z"/>
<path style="fill:#aaa295; stroke:none;" d="M172 146L173 147L172 146z"/>
<path style="fill:#000008; stroke:none;" d="M66.6667 147.333C66.2222 147.778 67.2778 147.722 67.3333 147.667C67.7778 147.222 66.7222 147.278 66.6667 147.333z"/>
<path style="fill:#505c69; stroke:none;" d="M68 147L69 148L68 147z"/>
<path style="fill:#ccccc4; stroke:none;" d="M154 147L155 148L154 147z"/>
<path style="fill:#6b6c61; stroke:none;" d="M155 147L156 148L155 147z"/>
<path style="fill:#938068; stroke:none;" d="M176 147L177 148L176 147z"/>
<path style="fill:#8e703c; stroke:none;" d="M192 147C191.955 150.859 191.693 153.149 189 156C191.458 161.968 196.536 166.822 198 173L200 173C200.418 170.311 200.717 169.446 203 168C202.155 164.321 203.68 159.667 202.357 156.34C201.009 152.948 194.872 149.316 192 147z"/>
<path style="fill:#b9c3d0; stroke:none;" d="M71 148L72 149L71 148z"/>
<path style="fill:#bbbcb6; stroke:none;" d="M152 148L153 149L152 148z"/>
<path style="fill:#686964; stroke:none;" d="M153 148L154 149L153 148z"/>
<path style="fill:#a39488; stroke:none;" d="M175 148L176 149L175 148z"/>
<path style="fill:#23334d; stroke:none;" d="M48 150C47.7617 159.853 40.3935 159.827 32 160L32 175L22 176C22 180.498 21.4568 185.393 22.2593 189.83C23.3764 196.007 25.9296 201.637 26 208L32 209L32 225L40 225C32.3401 217.983 36 199.743 36 190C36 186.497 34.8695 180.337 37.6034 177.603C40.028 175.179 44.8873 176 48 176L48 168L56 168L56 160L64 160L65 153C70.2791 154.535 76.4845 153.929 82 154C80.3956 151.911 78.2026 151.392 76 150C70.7937 151.521 65.3768 151.418 60 152L61 149C56.6307 149.811 52.4363 150 48 150z"/>
<path style="fill:#061223; stroke:none;" d="M71.6667 149.333C71.2222 149.778 72.2778 149.722 72.3333 149.667C72.7778 149.222 71.7222 149.278 71.6667 149.333z"/>
<path style="fill:#84909f; stroke:none;" d="M73 149L74 150L73 149z"/>
<path style="fill:#919390; stroke:none;" d="M150 149L151 150L150 149z"/>
<path style="fill:#363732; stroke:none;" d="M151 149C152.248 149.685 152.548 149.749 154 150C152.752 149.315 152.452 149.251 151 149z"/>
<path style="fill:#f4e9d7; stroke:none;" d="M171.333 149.667C171.278 149.722 171.222 150.778 171.667 150.333C171.722 150.278 171.778 149.222 171.333 149.667z"/>
<path style="fill:#bcb2a9; stroke:none;" d="M174 149L175 150L174 149z"/>
<path style="fill:#000517; stroke:none;" d="M73.6667 150.333C73.2222 150.778 74.2778 150.722 74.3333 150.667C74.7778 150.222 73.7222 150.278 73.6667 150.333z"/>
<path style="fill:#aebacc; stroke:none;" d="M76 150L77 151L76 150z"/>
<path style="fill:#abafb0; stroke:none;" d="M147 150L148 151L147 150z"/>
<path style="fill:#9c8f81; stroke:none;" d="M173 150L174 151L173 150z"/>
<path style="fill:#000012; stroke:none;" d="M76.6667 151.333C76.2222 151.778 77.2778 151.722 77.3333 151.667C77.7778 151.222 76.7222 151.278 76.6667 151.333z"/>
<path style="fill:#c5d2e5; stroke:none;" d="M79 151L80 152L79 151z"/>
<path style="fill:#a3a8ab; stroke:none;" d="M144 151L145 152L144 151z"/>
<path style="fill:#2e3233; stroke:none;" d="M146.667 151.333C146.222 151.778 147.278 151.722 147.333 151.667C147.778 151.222 146.722 151.278 146.667 151.333z"/>
<path style="fill:#a5b2c4; stroke:none;" d="M82 152L83 153L82 152z"/>
<path style="fill:#959fa1; stroke:none;" d="M141 152L142 153L141 152z"/>
<path style="fill:#010c0d; stroke:none;" d="M143 152L144 153L143 152z"/>
<path style="fill:#987436; stroke:none;" d="M200 152C200.869 153.956 202.205 155.92 202.416 158.091C202.686 160.87 201.266 164.104 203.024 166.638C204.928 169.382 207.408 167.412 207.852 164.89C208.59 160.695 207.766 156.124 207 152L200 152z"/>
<path style="fill:#b27b28; stroke:none;" d="M211 152C212.001 153.924 212.077 154.098 214 155C212.293 159.15 212.526 161.282 215 165C218.3 163.362 220.554 163.943 224 165L225 152L219 152L220 156C218.543 154.897 218.103 154.457 217 153C215.7 153.65 216 153.147 216 155C214.439 152.628 213.831 152.217 211 152z"/>
<path style="fill:#233656; stroke:none;" d="M65 153C64.428 155.377 64.1095 157.558 64 160L56 160L56 168L48 168L48 176C44.9969 176 39.1466 174.928 37.0278 177.603C35.0883 180.052 36 185.09 36 188L36 213C36.0002 216.016 35.1571 220.836 37.6034 223.142C40.8706 226.222 47.8932 225 52 225C52 215.491 51.0681 205.449 52.1289 196C52.9032 189.103 55.9758 183.039 56 176L60 176L62 168C68.1674 167.979 72.9997 166.864 74 160L79 160L80 155C81.8006 155.562 83.1218 155.824 85 156C84.7761 157.684 84.7817 158.314 85 160C90.8475 157.634 96.1896 158.701 102 157C89.8279 153.578 77.0165 155.645 65 153z"/>
<path style="fill:#000923; stroke:none;" d="M82.6667 153.333C82.2222 153.778 83.2778 153.722 83.3333 153.667C83.7778 153.222 82.7222 153.278 82.6667 153.333z"/>
<path style="fill:#64748a; stroke:none;" d="M85 153L86 154L85 153z"/>
<path style="fill:#becae2; stroke:none;" d="M86 153L87 154L86 153z"/>
<path style="fill:#b0b7be; stroke:none;" d="M137 153L138 154L137 153z"/>
<path style="fill:#636970; stroke:none;" d="M138 153L139 154L138 153z"/>
<path style="fill:#1f282d; stroke:none;" d="M140.667 153.333C140.222 153.778 141.278 153.722 141.333 153.667C141.778 153.222 140.722 153.278 140.667 153.333z"/>
<path style="fill:#000721; stroke:none;" d="M86.6667 154.333C86.2222 154.778 87.2778 154.722 87.3333 154.667C87.7778 154.222 86.7222 154.278 86.6667 154.333z"/>
<path style="fill:#57637b; stroke:none;" d="M89 154L90 155L89 154z"/>
<path style="fill:#a8b3c8; stroke:none;" d="M90 154L91 155L90 154z"/>
<path style="fill:#ced2dc; stroke:none;" d="M132 154L133 155L132 154z"/>
<path style="fill:#9699a3; stroke:none;" d="M133 154L134 155L133 154z"/>
<path style="fill:#2f445f; stroke:none;" d="M134 154C132.297 154.698 131.809 154.834 130 155C125.36 158.846 117.762 158.041 112 158.003C108.69 157.981 105.267 157.405 103 160C109.802 158.404 110.497 162.03 116 164C115.531 168.525 117.031 171.71 118 176C122.986 176.004 126.739 175.831 130 180L134 179C134 177.203 133.986 177.479 133 176L135 176C133.827 172.48 134.776 174.203 136 172C136.846 170.476 135.382 167.648 136 166C136.543 164.553 139.369 164.842 140 164C141.657 161.791 138.927 159.927 138 159L139 158L134 158L138 157C136.659 155.726 135.597 154.959 134 154z"/>
<path style="fill:#141b23; stroke:none;" d="M135 154C136.248 154.685 136.548 154.749 138 155C136.752 154.315 136.452 154.251 135 154z"/>
<path style="fill:#21395f; stroke:none;" d="M80 155L79 160L74 160C72.3911 166.249 68.0308 167.933 62 168L60 176L56 176C55.9264 182.649 52.8622 188.468 52.1289 195C51.0317 204.773 52 215.165 52 225L64 225C64 213.771 62 203.231 62 192C67.8549 190.057 66 182.129 66 177C74.6913 175.687 78.5127 168.105 88 168L88 165L96 165L96 162L104 162C101.226 155.1 90.2538 157.061 85 160L85 156L80 155z"/>
<path style="fill:#000722; stroke:none;" d="M90 155C91.2484 155.685 91.5484 155.749 93 156C91.7516 155.315 91.4516 155.251 90 155z"/>
<path style="fill:#7e8aa2; stroke:none;" d="M95 155L96 156L95 155z"/>
<path style="fill:#d5e1f2; stroke:none;" d="M96.6667 155.333C96.2222 155.778 97.2778 155.722 97.3333 155.667C97.7778 155.222 96.7222 155.278 96.6667 155.333z"/>
<path style="fill:#acb4c0; stroke:none;" d="M126.667 155.333C126.222 155.778 127.278 155.722 127.333 155.667C127.778 155.222 126.722 155.278 126.667 155.333z"/>
<path style="fill:#565e69; stroke:none;" d="M128.667 155.333C128.222 155.778 129.278 155.722 129.333 155.667C129.778 155.222 128.722 155.278 128.667 155.333z"/>
<path style="fill:#161e28; stroke:none;" d="M131.667 155.333C131.222 155.778 132.278 155.722 132.333 155.667C132.778 155.222 131.722 155.278 131.667 155.333z"/>
<path style="fill:#415361; stroke:none;" d="M136 155C136.65 156.3 136.147 156 138 156L134 157C135.769 157.779 137.036 157.912 139 158C138.85 167.683 138.967 174.156 148 180C147.997 175.216 146.769 169.844 150 166L148 160L144 160L144 155C141.217 155.445 138.8 155.297 136 155z"/>
<path style="fill:#000821; stroke:none;" d="M96 156C97.506 156.683 98.3148 156.826 100 157C98.4939 156.317 97.6852 156.174 96 156z"/>
<path style="fill:#8c9db2; stroke:none;" d="M102.667 156.333C102.222 156.778 103.278 156.722 103.333 156.667C103.778 156.222 102.722 156.278 102.667 156.333z"/>
<path style="fill:#a3b4ca; stroke:none;" d="M104 156C105.248 156.685 105.548 156.749 107 157C105.752 156.315 105.452 156.251 104 156z"/>
<path style="fill:#d1e2f3; stroke:none;" d="M107 156C109.89 157.213 112.874 156.998 116 157C113.11 155.787 110.126 156.002 107 156z"/>
<path style="fill:#99a9b9; stroke:none;" d="M116 156C117.506 156.683 118.315 156.826 120 157C118.494 156.317 117.685 156.174 116 156z"/>
<path style="fill:#5a6a7a; stroke:none;" d="M120.667 156.333C120.222 156.778 121.278 156.722 121.333 156.667C121.778 156.222 120.722 156.278 120.667 156.333z"/>
<path style="fill:#22374a; stroke:none;" d="M122 156C120.199 156.562 118.878 156.824 117 157C118.619 158.49 123.264 159.173 122 156z"/>
<path style="fill:#021222; stroke:none;" d="M123 156C124.248 156.685 124.548 156.749 126 157C124.752 156.315 124.452 156.251 123 156z"/>
<path style="fill:#273444; stroke:none;" d="M126 158L130 157C127.954 156.249 127.404 156.344 126 158z"/>
<path style="fill:#806a41; stroke:none;" d="M188 156C187.03 157.6 186.28 158.663 185 160C184.834 161.809 184.698 162.297 184 164L187 170L192 168C191.957 163.183 191.502 159.51 188 156z"/>
<path style="fill:#00162d; stroke:none;" d="M101 157C105.724 158.982 111.91 158 117 158C112.276 156.018 106.09 157 101 157z"/>
<path style="fill:#233c65; stroke:none;" d="M104 159L104 162L96 162L96 165L88 165L88 168C78.2617 168.033 74.6998 174.902 66 177C66 182.471 67.4241 189.009 62 192C62 203.243 64 213.79 64 225L68 225L68 208L72 208C72 204.232 71.3293 199.715 72.3179 196.058C73.1364 193.03 76.1903 192.345 77.3974 189.701C78.9889 186.215 78 180.765 78 177C79.1952 178.223 79.3164 178.42 80 180L84 180L84 176L118 176C117.439 171.78 115.78 168.369 116 164C111.224 161.195 110.085 159.022 104 159z"/>
<path style="fill:#51585e; stroke:none;" d="M148 160C148.386 162.143 148.745 163.25 150 165C143.24 174.064 153.385 175.424 160 177L160 161C157.706 160.697 156.789 160.422 155 159C152.623 159.572 150.442 159.89 148 160z"/>
<path style="fill:#213148; stroke:none;" d="M18 207L24 209L24 225L32 225L32 209L26 208C25.9769 201.259 23.4074 195.446 22.2593 188.91C21.5284 184.75 22 180.213 22 176L32 175L32 160C28.2315 160 20.7076 158.569 17.6034 161.028C14.9252 163.149 15.7682 169.918 16.1289 172.91C17.5068 184.343 18 195.319 18 207z"/>
<path style="fill:#6a6152; stroke:none;" d="M171 168C167.911 170.002 168.041 172.464 168 176L177 176L176 171C178.21 172.554 178.586 172.274 180 170C176.032 167.682 176.039 164.318 176 160C171.67 161.238 169.939 163.557 171 168z"/>
<path style="fill:#b07f32; stroke:none;" d="M208 160L208 176C212.849 175.996 217.064 176.61 218 171C220.388 171.265 222.594 171.143 225 171L225 160C224.221 161.769 224.088 163.036 224 165C221.05 163.76 218.348 162.418 216 165C213.514 162.295 211.679 160.584 208 160z"/>
<path style="fill:#796b50; stroke:none;" d="M176 161C176.037 165.037 175.782 168.517 180 170C180.73 174.741 183.856 179.663 186 184C187.314 183.232 187.232 183.314 188 182L190 182C190.768 183.314 190.686 183.232 192 184C191.971 175.739 187.685 169.588 183 163C179.807 164.202 178.712 162.5 176 161z"/>
<path style="fill:#87714a; stroke:none;" d="M192 164L192 168C188.578 169.136 188.216 170.57 189 174C190.195 173.402 189.977 173.534 191 172C192.462 174.433 193.288 175.177 196 176C197.371 170.591 197.479 166.765 192 164z"/>
<path style="fill:#3b556c; stroke:none;" d="M136 165C135.889 168.799 134.306 172.318 135 176L133 176L132 181C134.403 180.832 135.46 180.803 137 179C138.372 181.743 139.036 185.107 140 188C140.249 188.747 139.571 190.356 140 191C141.217 192.825 141.529 191.346 143 192C146.185 193.415 147.352 196.593 147 198L156 204C155.743 200.212 156.082 196.675 155 193L152 195C150.621 190.038 147.012 186.354 151 182L150 179L146 180C144.984 176.686 142.789 175.422 140.85 172.675C138.897 169.91 138.871 167.003 136 165z"/>
<path style="fill:#957b48; stroke:none;" d="M200 168L200 173L197 171C194.808 180.21 198.622 184.513 208 184L208 168L200 168z"/>
<path style="fill:#6c6f68; stroke:none;" d="M176 171C176.176 172.878 176.438 174.199 177 176L173 176L176 184L172 184C172.047 187.935 171.954 190.657 176 192L176 199C179.435 198.943 182.616 199.508 186 200C184.272 194.652 181.021 189.415 184 184C183.697 178.597 182.182 175.812 180 171C178.258 171.584 177.742 171.584 176 171z"/>
<path style="fill:#b58942; stroke:none;" d="M218 171C217.481 175.195 217.481 178.805 218 183C219.661 182.941 221.258 184.368 222.833 183.833C226.488 182.592 225 174.056 225 171L218 171z"/>
<path style="fill:#797460; stroke:none;" d="M190 172C190.844 176.109 191.953 179.754 192 184C190.365 183.455 190.545 183.635 190 182L188 182C187.455 183.635 187.635 183.455 186 184C184.999 182.076 184.923 181.902 183 181C183 182.797 183.014 182.521 184 184C179.814 187.924 183.019 196.368 188 198C188.472 196.584 188.814 196.186 190 195C189.528 193.584 189.186 193.186 188 192L192 192C192.511 190.048 192.733 189.543 194 188C194 186.203 193.986 186.479 193 185C195.377 184.428 197.558 184.11 200 184C198.042 181.284 196.528 179.343 196 176C193.729 174.914 191.988 173.556 190 172z"/>
<path style="fill:#4a5a69; stroke:none;" d="M148 174L148 180C150.121 180 149.755 180.07 151 182C146.074 185.551 150.206 190.477 152 195C153.314 194.232 153.232 194.314 154 193L160 192C160 188.319 161.606 179.58 158.397 177.028C156.011 175.131 150.948 175.249 148 174z"/>
<path style="fill:#21406e; stroke:none;" d="M84 176L84 180C81.4301 179.525 80.2251 178.086 78 177C78 180.617 78.8196 185.463 77.3974 188.856C76.28 191.522 73.1399 192.29 72.3179 195.144C71.2035 199.012 72 203.994 72 208L68 208L68 225L81 225L81 208L84 208C84.7167 205.207 86.5956 203.338 87.4907 200.675C88.3919 197.994 87.9997 194.787 88 192L96 192C97.5047 182.565 108.439 187.64 115 185C113.836 182.834 112.486 180.966 111 179C113.254 179.749 114.314 180.344 116 182C118.902 182.182 121.257 183.041 124 184C122.636 181.199 120.786 179.063 120 176L84 176z"/>
<path style="fill:#566165; stroke:none;" d="M160 175L160 192L165 192C165.5 187.614 167.245 184.593 164 181C165.336 179.174 165.69 178.247 166 176L160 175z"/>
<path style="fill:#232f3f; stroke:none;" d="M1 176C-0.692254 181.725 0 188.06 0 194L0 225L24 225L24 209C14.8962 207.007 16 200.967 16 193L4 192C4 186.781 5.64735 179.352 1 176z"/>
<path style="fill:#2e4f72; stroke:none;" d="M120 176C120.49 179.363 122.071 181.273 124 184C122.203 184 122.479 184.014 121 185L122 188C119.064 188.627 117.987 189.147 117 192C124.648 191.996 132.504 191.215 140 193C139.9 188.196 138.637 183.729 138 179C132.781 181.74 131.35 178.118 126.677 176.51C124.583 175.79 122.177 176.007 120 176z"/>
<path style="fill:#646560; stroke:none;" d="M166 176C165.546 177.947 165.006 179.269 164 181C166.123 184.843 165.336 186.964 164 191C166.633 192.737 167.788 194.088 169 197L173 197L171 192L173 192C172.352 189.291 172.058 186.784 172 184L176 184C175.232 182.686 175.314 182.768 174 182L175 177C171.96 176.276 169.122 176.026 166 176z"/>
<path style="fill:#af8b4d; stroke:none;" d="M208 176C207.965 179.192 207.942 181.44 206 184C207.561 189.933 208.595 191.924 215 192C215.397 194.301 215.957 195.904 217 198C225.19 196.169 224.994 189.318 225 182C222.517 183.216 220.687 182.958 218 183L217 176L208 176z"/>
<path style="fill:#21497d; stroke:none;" d="M111 179C112.164 181.166 113.514 183.034 115 185C108.319 187.071 96.7275 182.664 96 192L88 192C87.9951 198.398 84.8529 202.142 84 208L81 208L81 225L96 225L96 208C98.73 207.883 101.314 207.501 104 207C104.794 201.874 108.136 199.183 112 196L112 200C117.519 200.061 123.181 200.758 127 205C128.098 202.387 127.993 199.835 128 197C131.552 196.658 132.758 195.322 134 192L117 192C118.382 189.58 119.363 188.939 122 188C121.546 183.695 120.678 181.581 116 182C114.535 179.878 113.543 179.526 111 179z"/>
<path style="fill:#887e65; stroke:none;" d="M193 185L194 188C192.382 189.314 192.307 189.877 192 192L188 192C188.545 193.635 188.365 193.455 190 194C188.805 196.166 188.309 197.553 188 200C191.524 200.112 193.516 200.46 196 203C201.454 201.166 198.359 196.603 196 193L199 192L198 184C196.122 184.176 194.801 184.438 193 185z"/>
<path style="fill:#988259; stroke:none;" d="M198 184C198.117 186.73 198.499 189.314 199 192C197.203 192 197.479 192.014 196 193C197.655 196.415 199.083 199.167 199 203C203.99 201.485 203.228 197.634 206 194L205 192C211.319 186.471 202.382 184.175 198 184z"/>
<path style="fill:#a88c5d; stroke:none;" d="M207 190C206.455 191.635 206.635 191.455 205 192L206 194C204.382 195.314 204.307 195.877 204 198C206.491 199.232 208.376 201.111 211 202L210 200L216 203C215.99 199.237 215.687 195.7 215 192C211.913 191.91 209.706 191.507 207 190z"/>
<path style="fill:#35597b; stroke:none;" d="M140 191L140 193C135.231 191.715 133.4 193.439 132 198C135.576 200.798 135.951 203.605 136 208C143.163 204.507 143.999 199.335 144 192L140 191z"/>
<path style="fill:#536675; stroke:none;" d="M161 205L168 205L168 192C165.224 191.993 160.84 191.025 158.318 192.313C152.969 195.045 159.12 202.115 161 205z"/>
<path style="fill:#b89e6d; stroke:none;" d="M224 191C222.517 195.605 220.939 197.1 216 197C215.826 199.612 215.582 200.943 214 203L214 205C216.13 206.948 217.186 209.632 220 210L220 215L225 215C225 207.767 226.806 197.687 224 191z"/>
<path style="fill:#646d74; stroke:none;" d="M171 192L173 197C171.201 196.501 170.281 196.267 169 195C166.901 199.346 167.612 205.465 172 208L172 202C177.488 201.038 176.081 196.559 176 192L171 192z"/>
<path style="fill:#3c638e; stroke:none;" d="M144 193C143.991 195.531 144.234 198.31 143.157 200.675C141.578 204.143 133.89 208.346 138 212C133.729 216.684 135.681 219.397 135 225L157 225C156.169 217.705 157.847 211.206 158 204C153.767 202.814 151.08 199.502 147 198C147.011 195.397 146.274 194.314 144 193z"/>
<path style="fill:#214f8a; stroke:none;" d="M111 196C107.223 199.349 104.397 201.766 104 207L96 208L96 225C102.295 225 109.05 225.789 113 220C114.023 221.534 113.805 221.402 115 222C117.952 220.258 120.667 219.711 124 219C123.372 216.597 122.438 215.042 121 213C126.106 211.487 131.394 206.603 124.656 202.22C121.072 199.889 116.092 200.014 112 200C111.826 198.315 111.683 197.506 111 196z"/>
<path style="fill:#2c5688; stroke:none;" d="M131 196C129.647 196.712 129.455 196.815 128 197C128 201.152 126.051 212.132 129.602 214.972C131.276 216.311 134.013 215.976 136 216C136.684 214.42 136.805 214.223 138 213C134.553 206.802 137.03 201.008 131 196z"/>
<path style="fill:#7e8075; stroke:none;" d="M180 198C179.528 199.416 179.186 199.814 178 201L184 211L188 210L188 214L192 214L192 200L186 198C183.901 199.483 182.412 198.796 180 198z"/>
<path style="fill:#a39372; stroke:none;" d="M204 198C202.904 200.917 200.771 203.835 200.589 207C200.252 212.846 203.288 217.989 209 214C211.474 217.268 213.736 220.052 215 224C216.44 220.568 216 216.7 216 213C218.739 212.789 219.422 212.697 220 210C215.073 210 215.655 200.611 210 200L211 202L208 202C207.161 199.374 206.626 198.839 204 198z"/>
<path style="fill:#556c7e; stroke:none;" d="M156 199C155.636 206.247 161.775 217.403 168 221L168 217C169.915 218.277 169.085 218.277 171 217L170 205C166.909 204.875 164.043 204.485 161 205C159.709 202.197 158.611 200.64 156 199z"/>
<path style="fill:#707a7c; stroke:none;" d="M172 202L172 209L176 208C177.039 211.34 178.82 212.636 182 214C182.726 211.821 182.439 212.22 184 213C183.253 208.043 178.533 204.021 180 199L172 202z"/>
<path style="fill:#8d8875; stroke:none;" d="M192 200C192 201.949 191.394 205.126 192.5 206.833C194.098 209.299 198.409 209.558 196 213C203.052 215.39 200.462 207.567 202 203C198.276 202.727 195.517 200.948 192 200z"/>
<path style="fill:#4a6d8d; stroke:none;" d="M158 208C156.291 213.422 156.328 218.394 156 224C160.558 225.347 165.27 225 170 225C170.305 221.947 170.092 219.867 169 217C168.317 218.506 168.174 219.315 168 221C163.826 217.366 160.389 213.676 160 208L158 208z"/>
<path style="fill:#687989; stroke:none;" d="M171 208C169.702 213.582 170.313 219.306 170 225L182 225C180.607 220.534 180.004 216.682 180 212C177.751 210.846 177.154 210.249 176 208L171 208z"/>
<path style="fill:#7e847f; stroke:none;" d="M192 208L192 214L188 214L188 210C184.769 211.077 183.771 212.443 182 212C181.567 217.129 184.875 220.224 186 225L192 225L192 219C195.828 218.527 195.955 215.872 194 213L198 212C196.229 209.389 195.119 208.514 192 208z"/>
<path style="fill:#245693; stroke:none;" d="M121 213L124 219C120.877 219.329 115.151 221.506 113 220C111.243 221.733 110.358 222.341 108 223L108 225C114.666 225 121.334 225.045 128 224.999C130.104 224.985 133.478 225.394 134.918 223.436C136.332 221.514 134.451 218.031 134 216C130.418 215.432 129.057 214.492 128 211C125.564 211.507 123.326 212.12 121 213z"/>
<path style="fill:#8d8e88; stroke:none;" d="M194 213C196.313 216.085 196.017 216.983 193 220L192 219L192 225L200 225C199.999 219.232 200.616 214.38 194 213z"/>
<path style="fill:#bba47b; stroke:none;" d="M216 213L216 224C215.014 222.521 215 222.797 215 221C213.08 222.297 212.684 222.791 212 225L225 225L225 215L216 213z"/>
<path style="fill:#74828b; stroke:none;" d="M180 214C180.018 219.234 180.007 223.983 186 225C185.405 220.637 183.081 217.09 180 214z"/>
<path style="fill:#9d9684; stroke:none;" d="M200 214L200 225L212 225C213.757 219.898 212.888 217.764 209 214C205.564 215.868 203.543 215.344 200 214z"/>
</svg>
